<mxfile host="app.diagrams.net" modified="2022-04-21T06:59:33.291Z" agent="5.0 (Windows NT 10.0; Win64; x64) AppleWebKit/537.36 (KHTML, like Gecko) Chrome/100.0.4896.127 Safari/537.36" etag="3OrQtrVmT5rZsSs82KHH" version="17.4.5" type="github">
  <diagram id="F7d38sDTgIuft2gYF5d1" name="Page-1">
    <mxGraphModel dx="2031" dy="1191" grid="1" gridSize="10" guides="1" tooltips="1" connect="1" arrows="1" fold="1" page="1" pageScale="1" pageWidth="5000" pageHeight="5200" math="0" shadow="0">
      <root>
        <mxCell id="0" />
        <mxCell id="1" parent="0" />
        <mxCell id="NMpNhmsZsLYK3NYZCR3p-1" value="portInRequestAckWS(SffRequest sffRequest)" style="text;html=1;strokeColor=#3700CC;fillColor=#6a00ff;align=center;verticalAlign=middle;whiteSpace=wrap;rounded=0;fontColor=#ffffff;fontSize=42;" parent="1" vertex="1">
          <mxGeometry x="930" y="40" width="1110" height="110" as="geometry" />
        </mxCell>
        <mxCell id="NMpNhmsZsLYK3NYZCR3p-2" value="" style="edgeStyle=orthogonalEdgeStyle;rounded=0;orthogonalLoop=1;jettySize=auto;html=1;" parent="1" source="NMpNhmsZsLYK3NYZCR3p-3" target="NMpNhmsZsLYK3NYZCR3p-5" edge="1">
          <mxGeometry relative="1" as="geometry" />
        </mxCell>
        <mxCell id="NMpNhmsZsLYK3NYZCR3p-3" value="Start" style="rounded=1;whiteSpace=wrap;html=1;fontSize=12;glass=0;strokeWidth=1;shadow=0;labelBackgroundColor=none;fillColor=#6a00ff;strokeColor=#3700CC;fontColor=#ffffff;" parent="1" vertex="1">
          <mxGeometry x="230" y="150" width="120" height="40" as="geometry" />
        </mxCell>
        <mxCell id="NMpNhmsZsLYK3NYZCR3p-4" value="" style="edgeStyle=orthogonalEdgeStyle;rounded=0;orthogonalLoop=1;jettySize=auto;html=1;" parent="1" source="NMpNhmsZsLYK3NYZCR3p-5" target="NMpNhmsZsLYK3NYZCR3p-8" edge="1">
          <mxGeometry relative="1" as="geometry" />
        </mxCell>
        <mxCell id="NMpNhmsZsLYK3NYZCR3p-5" value="set SffResponse sffResponse" style="rounded=1;whiteSpace=wrap;html=1;absoluteArcSize=1;arcSize=14;strokeWidth=1;fillColor=#dae8fc;strokeColor=#6c8ebf;" parent="1" vertex="1">
          <mxGeometry x="197.5" y="250" width="185" height="40" as="geometry" />
        </mxCell>
        <mxCell id="NMpNhmsZsLYK3NYZCR3p-6" style="edgeStyle=orthogonalEdgeStyle;rounded=0;orthogonalLoop=1;jettySize=auto;html=1;entryX=0;entryY=0.5;entryDx=0;entryDy=0;fillColor=#f8cecc;strokeColor=#b85450;" parent="1" source="NMpNhmsZsLYK3NYZCR3p-8" target="NMpNhmsZsLYK3NYZCR3p-10" edge="1">
          <mxGeometry relative="1" as="geometry" />
        </mxCell>
        <mxCell id="NMpNhmsZsLYK3NYZCR3p-7" style="edgeStyle=orthogonalEdgeStyle;rounded=0;orthogonalLoop=1;jettySize=auto;html=1;entryX=0;entryY=0.5;entryDx=0;entryDy=0;fontColor=#00CC00;fillColor=#d5e8d4;strokeColor=#82b366;" parent="1" source="NMpNhmsZsLYK3NYZCR3p-8" target="NMpNhmsZsLYK3NYZCR3p-36" edge="1">
          <mxGeometry relative="1" as="geometry">
            <Array as="points">
              <mxPoint x="290" y="1530" />
            </Array>
          </mxGeometry>
        </mxCell>
        <mxCell id="NMpNhmsZsLYK3NYZCR3p-8" value="sffRequest is null" style="strokeWidth=2;html=1;shape=mxgraph.flowchart.decision;whiteSpace=wrap;labelBackgroundColor=none;fillColor=#e51400;strokeColor=#B20000;fontColor=#ffffff;" parent="1" vertex="1">
          <mxGeometry x="240" y="350" width="100" height="100" as="geometry" />
        </mxCell>
        <mxCell id="NMpNhmsZsLYK3NYZCR3p-9" value="" style="edgeStyle=orthogonalEdgeStyle;rounded=0;orthogonalLoop=1;jettySize=auto;html=1;fontColor=#FF0000;" parent="1" source="NMpNhmsZsLYK3NYZCR3p-10" edge="1">
          <mxGeometry relative="1" as="geometry">
            <mxPoint x="610" y="480" as="targetPoint" />
          </mxGeometry>
        </mxCell>
        <mxCell id="NMpNhmsZsLYK3NYZCR3p-10" value="parameterList = sffRequest.getParameterList()" style="rounded=1;whiteSpace=wrap;html=1;absoluteArcSize=1;arcSize=14;strokeWidth=1;fillColor=#dae8fc;strokeColor=#6c8ebf;" parent="1" vertex="1">
          <mxGeometry x="460" y="380" width="300" height="40" as="geometry" />
        </mxCell>
        <mxCell id="NMpNhmsZsLYK3NYZCR3p-11" value="False" style="text;html=1;align=center;verticalAlign=middle;resizable=0;points=[];autosize=1;strokeColor=none;fillColor=none;fontColor=#FF0000;" parent="1" vertex="1">
          <mxGeometry x="350" y="380" width="40" height="20" as="geometry" />
        </mxCell>
        <mxCell id="NMpNhmsZsLYK3NYZCR3p-12" style="edgeStyle=orthogonalEdgeStyle;rounded=0;orthogonalLoop=1;jettySize=auto;html=1;entryX=0;entryY=0.5;entryDx=0;entryDy=0;fontColor=#FFFFFF;fillColor=#f8cecc;strokeColor=#b85450;" parent="1" source="NMpNhmsZsLYK3NYZCR3p-14" target="NMpNhmsZsLYK3NYZCR3p-16" edge="1">
          <mxGeometry relative="1" as="geometry" />
        </mxCell>
        <mxCell id="NMpNhmsZsLYK3NYZCR3p-13" style="edgeStyle=orthogonalEdgeStyle;rounded=0;orthogonalLoop=1;jettySize=auto;html=1;entryX=0;entryY=0.5;entryDx=0;entryDy=0;fontColor=#00CC00;fillColor=#d5e8d4;strokeColor=#82b366;" parent="1" source="NMpNhmsZsLYK3NYZCR3p-14" target="NMpNhmsZsLYK3NYZCR3p-36" edge="1">
          <mxGeometry relative="1" as="geometry">
            <Array as="points">
              <mxPoint x="610" y="1530" />
            </Array>
          </mxGeometry>
        </mxCell>
        <mxCell id="NMpNhmsZsLYK3NYZCR3p-14" value="parameterList is null" style="rhombus;whiteSpace=wrap;html=1;fontColor=#ffffff;fillColor=#e51400;strokeColor=#B20000;" parent="1" vertex="1">
          <mxGeometry x="542.5" y="480" width="135" height="120" as="geometry" />
        </mxCell>
        <mxCell id="NMpNhmsZsLYK3NYZCR3p-15" style="edgeStyle=orthogonalEdgeStyle;rounded=0;orthogonalLoop=1;jettySize=auto;html=1;entryX=0.5;entryY=0;entryDx=0;entryDy=0;fontColor=#FFFFFF;" parent="1" source="NMpNhmsZsLYK3NYZCR3p-16" target="NMpNhmsZsLYK3NYZCR3p-20" edge="1">
          <mxGeometry relative="1" as="geometry" />
        </mxCell>
        <mxCell id="NMpNhmsZsLYK3NYZCR3p-16" value="parameters = parameterList.getParameter()" style="rounded=1;whiteSpace=wrap;html=1;absoluteArcSize=1;arcSize=14;strokeWidth=1;fillColor=#dae8fc;strokeColor=#6c8ebf;" parent="1" vertex="1">
          <mxGeometry x="800" y="520" width="270" height="40" as="geometry" />
        </mxCell>
        <mxCell id="NMpNhmsZsLYK3NYZCR3p-17" value="False" style="text;html=1;align=center;verticalAlign=middle;resizable=0;points=[];autosize=1;strokeColor=none;fillColor=none;fontColor=#FF0000;" parent="1" vertex="1">
          <mxGeometry x="690" y="520" width="40" height="20" as="geometry" />
        </mxCell>
        <mxCell id="NMpNhmsZsLYK3NYZCR3p-18" value="" style="edgeStyle=orthogonalEdgeStyle;rounded=0;orthogonalLoop=1;jettySize=auto;html=1;fontColor=#FFFFFF;fillColor=#d5e8d4;strokeColor=#82b366;" parent="1" source="NMpNhmsZsLYK3NYZCR3p-20" target="NMpNhmsZsLYK3NYZCR3p-23" edge="1">
          <mxGeometry relative="1" as="geometry" />
        </mxCell>
        <mxCell id="NMpNhmsZsLYK3NYZCR3p-19" style="edgeStyle=orthogonalEdgeStyle;rounded=0;orthogonalLoop=1;jettySize=auto;html=1;entryX=1;entryY=0.5;entryDx=0;entryDy=0;fontColor=#00CC00;fillColor=#f8cecc;strokeColor=#b85450;" parent="1" source="NMpNhmsZsLYK3NYZCR3p-20" target="NMpNhmsZsLYK3NYZCR3p-36" edge="1">
          <mxGeometry relative="1" as="geometry">
            <Array as="points">
              <mxPoint x="1710" y="735" />
              <mxPoint x="1710" y="1530" />
            </Array>
          </mxGeometry>
        </mxCell>
        <mxCell id="NMpNhmsZsLYK3NYZCR3p-20" value="parameters is not null &amp;amp;&amp;amp; parameters.length &amp;gt; 0" style="rhombus;whiteSpace=wrap;html=1;fillColor=#d5e8d4;strokeColor=#82b366;" parent="1" vertex="1">
          <mxGeometry x="840" y="660" width="190" height="150" as="geometry" />
        </mxCell>
        <mxCell id="NMpNhmsZsLYK3NYZCR3p-21" value="" style="edgeStyle=orthogonalEdgeStyle;rounded=0;orthogonalLoop=1;jettySize=auto;html=1;fontColor=#00CC00;fillColor=#d5e8d4;strokeColor=#82b366;" parent="1" source="NMpNhmsZsLYK3NYZCR3p-23" target="NMpNhmsZsLYK3NYZCR3p-27" edge="1">
          <mxGeometry relative="1" as="geometry" />
        </mxCell>
        <mxCell id="NMpNhmsZsLYK3NYZCR3p-22" style="edgeStyle=orthogonalEdgeStyle;rounded=0;orthogonalLoop=1;jettySize=auto;html=1;entryX=0;entryY=0.5;entryDx=0;entryDy=0;entryPerimeter=0;fontColor=#00CC00;fillColor=#f8cecc;strokeColor=#b85450;" parent="1" source="NMpNhmsZsLYK3NYZCR3p-23" target="NMpNhmsZsLYK3NYZCR3p-33" edge="1">
          <mxGeometry relative="1" as="geometry">
            <Array as="points">
              <mxPoint x="730" y="958" />
              <mxPoint x="730" y="1390" />
            </Array>
          </mxGeometry>
        </mxCell>
        <mxCell id="NMpNhmsZsLYK3NYZCR3p-23" value="i &amp;lt; parameters.length" style="rhombus;whiteSpace=wrap;html=1;fillColor=#fff2cc;strokeColor=#d6b656;" parent="1" vertex="1">
          <mxGeometry x="861.88" y="900" width="146.25" height="115" as="geometry" />
        </mxCell>
        <mxCell id="NMpNhmsZsLYK3NYZCR3p-24" value="True" style="text;html=1;align=center;verticalAlign=middle;resizable=0;points=[];autosize=1;strokeColor=none;fillColor=none;fontColor=#00CC00;" parent="1" vertex="1">
          <mxGeometry x="940" y="820" width="40" height="20" as="geometry" />
        </mxCell>
        <mxCell id="NMpNhmsZsLYK3NYZCR3p-25" style="edgeStyle=orthogonalEdgeStyle;rounded=0;orthogonalLoop=1;jettySize=auto;html=1;entryX=0;entryY=0.5;entryDx=0;entryDy=0;fontColor=#00CC00;fillColor=#d5e8d4;strokeColor=#82b366;" parent="1" source="NMpNhmsZsLYK3NYZCR3p-27" target="NMpNhmsZsLYK3NYZCR3p-30" edge="1">
          <mxGeometry relative="1" as="geometry" />
        </mxCell>
        <mxCell id="NMpNhmsZsLYK3NYZCR3p-26" value="" style="edgeStyle=orthogonalEdgeStyle;rounded=0;orthogonalLoop=1;jettySize=auto;html=1;fontColor=#00CC00;fillColor=#f8cecc;strokeColor=#b85450;" parent="1" source="NMpNhmsZsLYK3NYZCR3p-27" target="NMpNhmsZsLYK3NYZCR3p-33" edge="1">
          <mxGeometry relative="1" as="geometry" />
        </mxCell>
        <mxCell id="NMpNhmsZsLYK3NYZCR3p-27" value="&amp;nbsp;(orderPortInId, mobileNo, cLHId, donorID, cLHRejectCode, lastValidationDate) = getName" style="rhombus;whiteSpace=wrap;html=1;fillColor=#f8cecc;strokeColor=#b85450;" parent="1" vertex="1">
          <mxGeometry x="804.5" y="1090" width="261.02" height="170" as="geometry" />
        </mxCell>
        <mxCell id="NMpNhmsZsLYK3NYZCR3p-28" value="True" style="text;html=1;align=center;verticalAlign=middle;resizable=0;points=[];autosize=1;strokeColor=none;fillColor=none;fontColor=#00CC00;" parent="1" vertex="1">
          <mxGeometry x="940" y="1020" width="40" height="20" as="geometry" />
        </mxCell>
        <mxCell id="NMpNhmsZsLYK3NYZCR3p-29" style="edgeStyle=orthogonalEdgeStyle;rounded=0;orthogonalLoop=1;jettySize=auto;html=1;entryX=1;entryY=0.5;entryDx=0;entryDy=0;entryPerimeter=0;fontColor=#00CC00;fillColor=#dae8fc;strokeColor=#6c8ebf;" parent="1" source="NMpNhmsZsLYK3NYZCR3p-30" target="NMpNhmsZsLYK3NYZCR3p-33" edge="1">
          <mxGeometry relative="1" as="geometry">
            <Array as="points">
              <mxPoint x="1640" y="1175" />
              <mxPoint x="1640" y="1390" />
            </Array>
          </mxGeometry>
        </mxCell>
        <mxCell id="NMpNhmsZsLYK3NYZCR3p-30" value="(orderPortInId, mobileNo, cLHId, DonorID, cLHRejectCode, lastValidationDate) = getValue" style="rounded=1;whiteSpace=wrap;html=1;absoluteArcSize=1;arcSize=14;strokeWidth=1;fillColor=#dae8fc;strokeColor=#6c8ebf;" parent="1" vertex="1">
          <mxGeometry x="1170" y="1155" width="390" height="40" as="geometry" />
        </mxCell>
        <mxCell id="NMpNhmsZsLYK3NYZCR3p-31" value="True" style="text;html=1;align=center;verticalAlign=middle;resizable=0;points=[];autosize=1;strokeColor=none;fillColor=none;fontColor=#00CC00;" parent="1" vertex="1">
          <mxGeometry x="1065.52" y="1150" width="40" height="20" as="geometry" />
        </mxCell>
        <mxCell id="NMpNhmsZsLYK3NYZCR3p-32" value="" style="edgeStyle=orthogonalEdgeStyle;rounded=0;orthogonalLoop=1;jettySize=auto;html=1;fontColor=#00CC00;" parent="1" source="NMpNhmsZsLYK3NYZCR3p-33" target="NMpNhmsZsLYK3NYZCR3p-36" edge="1">
          <mxGeometry relative="1" as="geometry" />
        </mxCell>
        <mxCell id="NMpNhmsZsLYK3NYZCR3p-33" value="" style="strokeWidth=2;html=1;shape=mxgraph.flowchart.start_2;whiteSpace=wrap;fillColor=#fff2cc;strokeColor=#d6b656;" parent="1" vertex="1">
          <mxGeometry x="916.5" y="1370" width="37" height="40" as="geometry" />
        </mxCell>
        <mxCell id="NMpNhmsZsLYK3NYZCR3p-34" value="False" style="text;html=1;align=center;verticalAlign=middle;resizable=0;points=[];autosize=1;strokeColor=none;fillColor=none;fontColor=#FF0000;" parent="1" vertex="1">
          <mxGeometry x="940" y="1270" width="40" height="20" as="geometry" />
        </mxCell>
        <mxCell id="NMpNhmsZsLYK3NYZCR3p-35" value="" style="edgeStyle=orthogonalEdgeStyle;rounded=0;orthogonalLoop=1;jettySize=auto;html=1;fontColor=#00CC00;" parent="1" source="NMpNhmsZsLYK3NYZCR3p-36" target="NMpNhmsZsLYK3NYZCR3p-50" edge="1">
          <mxGeometry relative="1" as="geometry" />
        </mxCell>
        <mxCell id="NMpNhmsZsLYK3NYZCR3p-36" value="parameterList ParameterList" style="rounded=1;whiteSpace=wrap;html=1;absoluteArcSize=1;arcSize=14;strokeWidth=1;fillColor=#dae8fc;strokeColor=#6c8ebf;" parent="1" vertex="1">
          <mxGeometry x="842.5" y="1510" width="185" height="40" as="geometry" />
        </mxCell>
        <mxCell id="NMpNhmsZsLYK3NYZCR3p-37" value="True" style="text;html=1;align=center;verticalAlign=middle;resizable=0;points=[];autosize=1;strokeColor=none;fillColor=none;fontColor=#00CC00;" parent="1" vertex="1">
          <mxGeometry x="300" y="460" width="40" height="20" as="geometry" />
        </mxCell>
        <mxCell id="NMpNhmsZsLYK3NYZCR3p-38" value="True" style="text;html=1;align=center;verticalAlign=middle;resizable=0;points=[];autosize=1;strokeColor=none;fillColor=none;fontColor=#00CC00;" parent="1" vertex="1">
          <mxGeometry x="620" y="610" width="40" height="20" as="geometry" />
        </mxCell>
        <mxCell id="NMpNhmsZsLYK3NYZCR3p-39" value="False" style="text;html=1;align=center;verticalAlign=middle;resizable=0;points=[];autosize=1;strokeColor=none;fillColor=none;fontColor=#FF0000;" parent="1" vertex="1">
          <mxGeometry x="821.88" y="980" width="40" height="20" as="geometry" />
        </mxCell>
        <mxCell id="NMpNhmsZsLYK3NYZCR3p-40" value="False" style="text;html=1;align=center;verticalAlign=middle;resizable=0;points=[];autosize=1;strokeColor=none;fillColor=none;fontColor=#FF0000;" parent="1" vertex="1">
          <mxGeometry x="1040" y="710" width="40" height="20" as="geometry" />
        </mxCell>
        <mxCell id="NMpNhmsZsLYK3NYZCR3p-41" value="" style="edgeStyle=orthogonalEdgeStyle;rounded=0;orthogonalLoop=1;jettySize=auto;html=1;fontColor=#00CC00;entryX=0;entryY=0.5;entryDx=0;entryDy=0;fillColor=#d5e8d4;strokeColor=#82b366;" parent="1" source="NMpNhmsZsLYK3NYZCR3p-43" target="NMpNhmsZsLYK3NYZCR3p-47" edge="1">
          <mxGeometry relative="1" as="geometry">
            <mxPoint x="1125" y="1700" as="targetPoint" />
          </mxGeometry>
        </mxCell>
        <mxCell id="NMpNhmsZsLYK3NYZCR3p-42" value="" style="edgeStyle=orthogonalEdgeStyle;rounded=0;orthogonalLoop=1;jettySize=auto;html=1;fontColor=#00CC00;fillColor=#f8cecc;strokeColor=#b85450;" parent="1" source="NMpNhmsZsLYK3NYZCR3p-43" target="NMpNhmsZsLYK3NYZCR3p-59" edge="1">
          <mxGeometry relative="1" as="geometry" />
        </mxCell>
        <mxCell id="NMpNhmsZsLYK3NYZCR3p-43" value="cLHRejectCode.isnotEmpty()" style="rhombus;whiteSpace=wrap;html=1;fillColor=#d5e8d4;strokeColor=#82b366;" parent="1" vertex="1">
          <mxGeometry x="850" y="1710" width="170" height="140" as="geometry" />
        </mxCell>
        <mxCell id="NMpNhmsZsLYK3NYZCR3p-44" value="Case Reject" style="text;html=1;strokeColor=none;fillColor=none;align=center;verticalAlign=middle;whiteSpace=wrap;rounded=0;fontColor=#000000;fontSize=17;fontStyle=1" parent="1" vertex="1">
          <mxGeometry x="916.5" y="1660" width="143.38" height="30" as="geometry" />
        </mxCell>
        <mxCell id="NMpNhmsZsLYK3NYZCR3p-45" value="" style="edgeStyle=orthogonalEdgeStyle;rounded=0;orthogonalLoop=1;jettySize=auto;html=1;fontColor=#00CC00;entryX=0;entryY=0.5;entryDx=0;entryDy=0;fillColor=#d5e8d4;strokeColor=#82b366;" parent="1" source="NMpNhmsZsLYK3NYZCR3p-47" target="NMpNhmsZsLYK3NYZCR3p-52" edge="1">
          <mxGeometry relative="1" as="geometry">
            <mxPoint x="1570" y="1780" as="targetPoint" />
          </mxGeometry>
        </mxCell>
        <mxCell id="NMpNhmsZsLYK3NYZCR3p-46" value="" style="edgeStyle=orthogonalEdgeStyle;rounded=0;orthogonalLoop=1;jettySize=auto;html=1;fontColor=#00CC00;fillColor=#f8cecc;strokeColor=#b85450;" parent="1" source="NMpNhmsZsLYK3NYZCR3p-47" target="NMpNhmsZsLYK3NYZCR3p-55" edge="1">
          <mxGeometry relative="1" as="geometry" />
        </mxCell>
        <mxCell id="NMpNhmsZsLYK3NYZCR3p-47" value="orderPortInId.isnotEmpty()&amp;nbsp;&amp;amp;&amp;amp; mobileNo.isnotEmpty()" style="rhombus;whiteSpace=wrap;html=1;fillColor=#d5e8d4;strokeColor=#82b366;" parent="1" vertex="1">
          <mxGeometry x="1250" y="1705" width="200" height="150" as="geometry" />
        </mxCell>
        <mxCell id="NMpNhmsZsLYK3NYZCR3p-48" value="True" style="text;html=1;align=center;verticalAlign=middle;resizable=0;points=[];autosize=1;strokeColor=none;fillColor=none;fontColor=#00CC00;" parent="1" vertex="1">
          <mxGeometry x="1010" y="1750" width="40" height="20" as="geometry" />
        </mxCell>
        <mxCell id="NMpNhmsZsLYK3NYZCR3p-49" value="" style="edgeStyle=orthogonalEdgeStyle;rounded=0;orthogonalLoop=1;jettySize=auto;html=1;fontColor=#00CC00;" parent="1" source="NMpNhmsZsLYK3NYZCR3p-50" target="NMpNhmsZsLYK3NYZCR3p-43" edge="1">
          <mxGeometry relative="1" as="geometry" />
        </mxCell>
        <mxCell id="NMpNhmsZsLYK3NYZCR3p-50" value="errFlg = true" style="rounded=1;whiteSpace=wrap;html=1;fillColor=#dae8fc;strokeColor=#6c8ebf;arcSize=14;strokeWidth=1;" parent="1" vertex="1">
          <mxGeometry x="877.5" y="1620" width="115" height="30" as="geometry" />
        </mxCell>
        <mxCell id="NMpNhmsZsLYK3NYZCR3p-51" style="edgeStyle=orthogonalEdgeStyle;rounded=0;orthogonalLoop=1;jettySize=auto;html=1;entryX=1;entryY=0.5;entryDx=0;entryDy=0;fontColor=#00CC00;" parent="1" source="NMpNhmsZsLYK3NYZCR3p-52" target="NMpNhmsZsLYK3NYZCR3p-68" edge="1">
          <mxGeometry relative="1" as="geometry">
            <Array as="points">
              <mxPoint x="1630" y="2500" />
            </Array>
          </mxGeometry>
        </mxCell>
        <mxCell id="NMpNhmsZsLYK3NYZCR3p-52" value="errFlg = false" style="rounded=1;whiteSpace=wrap;html=1;fillColor=#dae8fc;strokeColor=#6c8ebf;arcSize=14;strokeWidth=1;" parent="1" vertex="1">
          <mxGeometry x="1570" y="1765" width="115" height="30" as="geometry" />
        </mxCell>
        <mxCell id="NMpNhmsZsLYK3NYZCR3p-53" value="True" style="text;html=1;align=center;verticalAlign=middle;resizable=0;points=[];autosize=1;strokeColor=none;fillColor=none;fontColor=#00CC00;" parent="1" vertex="1">
          <mxGeometry x="1450" y="1750" width="40" height="20" as="geometry" />
        </mxCell>
        <mxCell id="NMpNhmsZsLYK3NYZCR3p-54" style="edgeStyle=orthogonalEdgeStyle;rounded=0;orthogonalLoop=1;jettySize=auto;html=1;entryX=1;entryY=0.5;entryDx=0;entryDy=0;fontColor=#00CC00;" parent="1" source="NMpNhmsZsLYK3NYZCR3p-55" target="NMpNhmsZsLYK3NYZCR3p-68" edge="1">
          <mxGeometry relative="1" as="geometry">
            <Array as="points">
              <mxPoint x="1350" y="2500" />
            </Array>
          </mxGeometry>
        </mxCell>
        <mxCell id="NMpNhmsZsLYK3NYZCR3p-55" value="errorMessageForParam = &quot;Please Input orderPortInId, mobileNo&quot;" style="rounded=1;whiteSpace=wrap;html=1;absoluteArcSize=1;arcSize=14;strokeWidth=1;fontColor=#FF0000;" parent="1" vertex="1">
          <mxGeometry x="1160" y="1950" width="380" height="40" as="geometry" />
        </mxCell>
        <mxCell id="NMpNhmsZsLYK3NYZCR3p-56" value="False" style="text;html=1;align=center;verticalAlign=middle;resizable=0;points=[];autosize=1;strokeColor=none;fillColor=none;fontColor=#FF0000;" parent="1" vertex="1">
          <mxGeometry x="1360" y="1855" width="40" height="20" as="geometry" />
        </mxCell>
        <mxCell id="NMpNhmsZsLYK3NYZCR3p-57" style="edgeStyle=orthogonalEdgeStyle;rounded=0;orthogonalLoop=1;jettySize=auto;html=1;entryX=0;entryY=0.5;entryDx=0;entryDy=0;fontColor=#00CC00;fillColor=#d5e8d4;strokeColor=#82b366;" parent="1" source="NMpNhmsZsLYK3NYZCR3p-59" target="NMpNhmsZsLYK3NYZCR3p-62" edge="1">
          <mxGeometry relative="1" as="geometry" />
        </mxCell>
        <mxCell id="NMpNhmsZsLYK3NYZCR3p-58" style="edgeStyle=orthogonalEdgeStyle;rounded=0;orthogonalLoop=1;jettySize=auto;html=1;entryX=0.5;entryY=0;entryDx=0;entryDy=0;fontColor=#00CC00;fillColor=#f8cecc;strokeColor=#b85450;" parent="1" source="NMpNhmsZsLYK3NYZCR3p-59" target="NMpNhmsZsLYK3NYZCR3p-65" edge="1">
          <mxGeometry relative="1" as="geometry" />
        </mxCell>
        <mxCell id="NMpNhmsZsLYK3NYZCR3p-59" value="(orderPortInId, mobileNo, cLHId, DonorId, lastValidationDate).isnotEmpty()" style="rhombus;whiteSpace=wrap;html=1;fillColor=#d5e8d4;strokeColor=#82b366;" parent="1" vertex="1">
          <mxGeometry x="831.25" y="2020" width="207.5" height="170" as="geometry" />
        </mxCell>
        <mxCell id="NMpNhmsZsLYK3NYZCR3p-60" value="False" style="text;html=1;align=center;verticalAlign=middle;resizable=0;points=[];autosize=1;strokeColor=none;fillColor=none;fontColor=#FF0000;" parent="1" vertex="1">
          <mxGeometry x="940" y="1855" width="40" height="20" as="geometry" />
        </mxCell>
        <mxCell id="NMpNhmsZsLYK3NYZCR3p-61" style="edgeStyle=orthogonalEdgeStyle;rounded=0;orthogonalLoop=1;jettySize=auto;html=1;entryX=1;entryY=0.5;entryDx=0;entryDy=0;fontColor=#00CC00;" parent="1" source="NMpNhmsZsLYK3NYZCR3p-62" target="NMpNhmsZsLYK3NYZCR3p-68" edge="1">
          <mxGeometry relative="1" as="geometry">
            <Array as="points">
              <mxPoint x="1210" y="2500" />
            </Array>
          </mxGeometry>
        </mxCell>
        <mxCell id="NMpNhmsZsLYK3NYZCR3p-62" value="errFlg = false" style="rounded=1;whiteSpace=wrap;html=1;fillColor=#dae8fc;strokeColor=#6c8ebf;arcSize=14;strokeWidth=1;" parent="1" vertex="1">
          <mxGeometry x="1150" y="2090" width="115" height="30" as="geometry" />
        </mxCell>
        <mxCell id="NMpNhmsZsLYK3NYZCR3p-63" value="True" style="text;html=1;align=center;verticalAlign=middle;resizable=0;points=[];autosize=1;strokeColor=none;fillColor=none;fontColor=#00CC00;" parent="1" vertex="1">
          <mxGeometry x="1040" y="2080" width="40" height="20" as="geometry" />
        </mxCell>
        <mxCell id="NMpNhmsZsLYK3NYZCR3p-64" style="edgeStyle=orthogonalEdgeStyle;rounded=0;orthogonalLoop=1;jettySize=auto;html=1;entryX=0.5;entryY=0;entryDx=0;entryDy=0;fontColor=#00CC00;" parent="1" source="NMpNhmsZsLYK3NYZCR3p-65" target="NMpNhmsZsLYK3NYZCR3p-68" edge="1">
          <mxGeometry relative="1" as="geometry" />
        </mxCell>
        <mxCell id="NMpNhmsZsLYK3NYZCR3p-65" value="errorMessageForParam = &quot;Please Input orderPortInId, mobileNo, cLHId, donorId, lastValidationDate&quot;" style="rounded=1;whiteSpace=wrap;html=1;absoluteArcSize=1;arcSize=14;strokeWidth=1;fontColor=#FF0000;" parent="1" vertex="1">
          <mxGeometry x="745.01" y="2310" width="380" height="40" as="geometry" />
        </mxCell>
        <mxCell id="NMpNhmsZsLYK3NYZCR3p-66" value="False" style="text;html=1;align=center;verticalAlign=middle;resizable=0;points=[];autosize=1;strokeColor=none;fillColor=none;fontColor=#FF0000;" parent="1" vertex="1">
          <mxGeometry x="940" y="2200" width="40" height="20" as="geometry" />
        </mxCell>
        <mxCell id="NMpNhmsZsLYK3NYZCR3p-67" style="edgeStyle=orthogonalEdgeStyle;rounded=0;orthogonalLoop=1;jettySize=auto;html=1;entryX=0.5;entryY=0;entryDx=0;entryDy=0;fontColor=#00CC00;" parent="1" source="NMpNhmsZsLYK3NYZCR3p-68" target="NMpNhmsZsLYK3NYZCR3p-71" edge="1">
          <mxGeometry relative="1" as="geometry" />
        </mxCell>
        <mxCell id="NMpNhmsZsLYK3NYZCR3p-68" value="sffOrder = this.queryOrderService.queryOrderByOrderNo(orderPortInId)" style="rounded=1;whiteSpace=wrap;html=1;absoluteArcSize=1;arcSize=14;strokeWidth=1;fillColor=#dae8fc;strokeColor=#6c8ebf;" parent="1" vertex="1">
          <mxGeometry x="736.26" y="2480" width="397.51" height="40" as="geometry" />
        </mxCell>
        <mxCell id="NMpNhmsZsLYK3NYZCR3p-69" style="edgeStyle=orthogonalEdgeStyle;rounded=0;orthogonalLoop=1;jettySize=auto;html=1;entryX=0;entryY=0.5;entryDx=0;entryDy=0;fontColor=#00CC00;fillColor=#d5e8d4;strokeColor=#82b366;" parent="1" source="NMpNhmsZsLYK3NYZCR3p-71" target="NMpNhmsZsLYK3NYZCR3p-74" edge="1">
          <mxGeometry relative="1" as="geometry" />
        </mxCell>
        <mxCell id="NMpNhmsZsLYK3NYZCR3p-70" style="edgeStyle=orthogonalEdgeStyle;rounded=0;orthogonalLoop=1;jettySize=auto;html=1;entryX=0.5;entryY=0;entryDx=0;entryDy=0;fillColor=#f8cecc;strokeColor=#b85450;" parent="1" source="NMpNhmsZsLYK3NYZCR3p-71" target="NMpNhmsZsLYK3NYZCR3p-103" edge="1">
          <mxGeometry relative="1" as="geometry" />
        </mxCell>
        <mxCell id="NMpNhmsZsLYK3NYZCR3p-71" value="sffOrder != null" style="rhombus;whiteSpace=wrap;html=1;fillColor=#d5e8d4;strokeColor=#82b366;" parent="1" vertex="1">
          <mxGeometry x="870" y="2620" width="129.39" height="100" as="geometry" />
        </mxCell>
        <mxCell id="NMpNhmsZsLYK3NYZCR3p-72" style="edgeStyle=orthogonalEdgeStyle;rounded=0;orthogonalLoop=1;jettySize=auto;html=1;entryX=0;entryY=0.5;entryDx=0;entryDy=0;fontColor=#00CC00;fillColor=#d5e8d4;strokeColor=#82b366;" parent="1" source="NMpNhmsZsLYK3NYZCR3p-74" edge="1">
          <mxGeometry relative="1" as="geometry">
            <mxPoint x="1430" y="2670" as="targetPoint" />
          </mxGeometry>
        </mxCell>
        <mxCell id="NMpNhmsZsLYK3NYZCR3p-73" style="edgeStyle=orthogonalEdgeStyle;rounded=0;orthogonalLoop=1;jettySize=auto;html=1;entryX=0.5;entryY=0;entryDx=0;entryDy=0;fontColor=#00CC00;fillColor=#f8cecc;strokeColor=#b85450;" parent="1" source="NMpNhmsZsLYK3NYZCR3p-74" target="NMpNhmsZsLYK3NYZCR3p-79" edge="1">
          <mxGeometry relative="1" as="geometry" />
        </mxCell>
        <mxCell id="NMpNhmsZsLYK3NYZCR3p-74" value="sffOrder.getStatusCd() = Cancelled" style="rhombus;whiteSpace=wrap;html=1;fillColor=#d5e8d4;strokeColor=#82b366;" parent="1" vertex="1">
          <mxGeometry x="1118.9" y="2610" width="171.1" height="120" as="geometry" />
        </mxCell>
        <mxCell id="NMpNhmsZsLYK3NYZCR3p-75" value="True" style="text;html=1;align=center;verticalAlign=middle;resizable=0;points=[];autosize=1;strokeColor=none;fillColor=none;fontColor=#00CC00;" parent="1" vertex="1">
          <mxGeometry x="998.75" y="2640" width="40" height="20" as="geometry" />
        </mxCell>
        <mxCell id="NMpNhmsZsLYK3NYZCR3p-76" value="True" style="text;html=1;align=center;verticalAlign=middle;resizable=0;points=[];autosize=1;strokeColor=none;fillColor=none;fontColor=#00CC00;" parent="1" vertex="1">
          <mxGeometry x="1290" y="2640" width="40" height="20" as="geometry" />
        </mxCell>
        <mxCell id="NMpNhmsZsLYK3NYZCR3p-77" style="edgeStyle=orthogonalEdgeStyle;rounded=0;orthogonalLoop=1;jettySize=auto;html=1;fillColor=#d5e8d4;strokeColor=#82b366;" parent="1" source="NMpNhmsZsLYK3NYZCR3p-79" target="NMpNhmsZsLYK3NYZCR3p-84" edge="1">
          <mxGeometry relative="1" as="geometry" />
        </mxCell>
        <mxCell id="NMpNhmsZsLYK3NYZCR3p-78" style="edgeStyle=orthogonalEdgeStyle;rounded=0;orthogonalLoop=1;jettySize=auto;html=1;entryX=0.5;entryY=0;entryDx=0;entryDy=0;fillColor=#f8cecc;strokeColor=#b85450;" parent="1" source="NMpNhmsZsLYK3NYZCR3p-79" target="NMpNhmsZsLYK3NYZCR3p-103" edge="1">
          <mxGeometry relative="1" as="geometry">
            <Array as="points">
              <mxPoint x="1204" y="3690" />
              <mxPoint x="935" y="3690" />
            </Array>
          </mxGeometry>
        </mxCell>
        <mxCell id="NMpNhmsZsLYK3NYZCR3p-79" value="&quot;Internal Port&quot; = sffOrder.getOrderType()" style="rhombus;whiteSpace=wrap;html=1;fillColor=#d5e8d4;strokeColor=#82b366;" parent="1" vertex="1">
          <mxGeometry x="1122.23" y="2850" width="164.45" height="130" as="geometry" />
        </mxCell>
        <mxCell id="NMpNhmsZsLYK3NYZCR3p-80" value="False" style="text;html=1;align=center;verticalAlign=middle;resizable=0;points=[];autosize=1;strokeColor=none;fillColor=none;fontColor=#FF0000;" parent="1" vertex="1">
          <mxGeometry x="1210" y="2730" width="40" height="20" as="geometry" />
        </mxCell>
        <mxCell id="NMpNhmsZsLYK3NYZCR3p-81" value="False" style="text;html=1;align=center;verticalAlign=middle;resizable=0;points=[];autosize=1;strokeColor=none;fillColor=none;fontColor=#FF0000;" parent="1" vertex="1">
          <mxGeometry x="1490" y="2990" width="40" height="20" as="geometry" />
        </mxCell>
        <mxCell id="NMpNhmsZsLYK3NYZCR3p-82" style="edgeStyle=orthogonalEdgeStyle;rounded=0;orthogonalLoop=1;jettySize=auto;html=1;entryX=0.5;entryY=0;entryDx=0;entryDy=0;fillColor=#d5e8d4;strokeColor=#82b366;" parent="1" source="NMpNhmsZsLYK3NYZCR3p-84" target="NMpNhmsZsLYK3NYZCR3p-89" edge="1">
          <mxGeometry relative="1" as="geometry" />
        </mxCell>
        <mxCell id="NMpNhmsZsLYK3NYZCR3p-284" style="edgeStyle=orthogonalEdgeStyle;rounded=0;orthogonalLoop=1;jettySize=auto;html=1;entryX=0.5;entryY=0;entryDx=0;entryDy=0;fillColor=#f8cecc;strokeColor=#b85450;" parent="1" source="NMpNhmsZsLYK3NYZCR3p-84" target="NMpNhmsZsLYK3NYZCR3p-100" edge="1">
          <mxGeometry relative="1" as="geometry" />
        </mxCell>
        <mxCell id="NMpNhmsZsLYK3NYZCR3p-84" value="&quot;Submit for Approve&quot; !=&amp;nbsp;sffOrder.getStatusCd()" style="rhombus;whiteSpace=wrap;html=1;fillColor=#d5e8d4;strokeColor=#82b366;" parent="1" vertex="1">
          <mxGeometry x="1402.77" y="2850" width="164.45" height="130" as="geometry" />
        </mxCell>
        <mxCell id="NMpNhmsZsLYK3NYZCR3p-85" style="edgeStyle=orthogonalEdgeStyle;rounded=0;orthogonalLoop=1;jettySize=auto;html=1;entryX=0.5;entryY=0;entryDx=0;entryDy=0;" parent="1" source="NMpNhmsZsLYK3NYZCR3p-86" target="NMpNhmsZsLYK3NYZCR3p-79" edge="1">
          <mxGeometry relative="1" as="geometry">
            <Array as="points">
              <mxPoint x="1504" y="2810" />
              <mxPoint x="1204" y="2810" />
            </Array>
          </mxGeometry>
        </mxCell>
        <mxCell id="NMpNhmsZsLYK3NYZCR3p-86" value="&lt;span&gt;caseCancel = &quot;Y&quot;&lt;/span&gt;" style="rounded=1;whiteSpace=wrap;html=1;absoluteArcSize=1;arcSize=14;strokeWidth=1;fillColor=#dae8fc;strokeColor=#6c8ebf;" parent="1" vertex="1">
          <mxGeometry x="1428.74" y="2655" width="151.26" height="35" as="geometry" />
        </mxCell>
        <mxCell id="NMpNhmsZsLYK3NYZCR3p-87" value="True" style="text;html=1;align=center;verticalAlign=middle;resizable=0;points=[];autosize=1;strokeColor=none;fillColor=none;fontColor=#00CC00;" parent="1" vertex="1">
          <mxGeometry x="1286.68" y="2890" width="40" height="20" as="geometry" />
        </mxCell>
        <mxCell id="NMpNhmsZsLYK3NYZCR3p-88" style="edgeStyle=orthogonalEdgeStyle;rounded=0;orthogonalLoop=1;jettySize=auto;html=1;entryX=0.5;entryY=0;entryDx=0;entryDy=0;" parent="1" source="NMpNhmsZsLYK3NYZCR3p-89" target="NMpNhmsZsLYK3NYZCR3p-92" edge="1">
          <mxGeometry relative="1" as="geometry" />
        </mxCell>
        <mxCell id="NMpNhmsZsLYK3NYZCR3p-89" value="errorMessageForParam = &quot;Order InternalPort not Submit for Approve&quot;" style="rounded=1;whiteSpace=wrap;html=1;absoluteArcSize=1;arcSize=14;strokeWidth=1;fontColor=#FF0000;" parent="1" vertex="1">
          <mxGeometry x="1664.5100000000002" y="3080" width="380" height="40" as="geometry" />
        </mxCell>
        <mxCell id="NMpNhmsZsLYK3NYZCR3p-90" value="True" style="text;html=1;align=center;verticalAlign=middle;resizable=0;points=[];autosize=1;strokeColor=none;fillColor=none;fontColor=#00CC00;" parent="1" vertex="1">
          <mxGeometry x="1567.22" y="2890" width="40" height="20" as="geometry" />
        </mxCell>
        <mxCell id="NMpNhmsZsLYK3NYZCR3p-91" value="" style="edgeStyle=orthogonalEdgeStyle;rounded=0;orthogonalLoop=1;jettySize=auto;html=1;" parent="1" source="NMpNhmsZsLYK3NYZCR3p-92" target="NMpNhmsZsLYK3NYZCR3p-94" edge="1">
          <mxGeometry relative="1" as="geometry" />
        </mxCell>
        <mxCell id="NMpNhmsZsLYK3NYZCR3p-92" value="parameterList = this.getReturnParameterListForPortInRequestAckWS(&quot;Success&quot;, null)" style="rounded=1;whiteSpace=wrap;html=1;absoluteArcSize=1;arcSize=14;strokeWidth=1;fillColor=#dae8fc;strokeColor=#6c8ebf;" parent="1" vertex="1">
          <mxGeometry x="1609.5" y="3200" width="490" height="40" as="geometry" />
        </mxCell>
        <mxCell id="NMpNhmsZsLYK3NYZCR3p-93" value="" style="edgeStyle=orthogonalEdgeStyle;rounded=0;orthogonalLoop=1;jettySize=auto;html=1;" parent="1" source="NMpNhmsZsLYK3NYZCR3p-94" target="NMpNhmsZsLYK3NYZCR3p-96" edge="1">
          <mxGeometry relative="1" as="geometry" />
        </mxCell>
        <mxCell id="NMpNhmsZsLYK3NYZCR3p-94" value="sffResponse.setErrorMessage(errorMessageForParam)" style="rounded=1;whiteSpace=wrap;html=1;absoluteArcSize=1;arcSize=14;strokeWidth=1;fontColor=#FF0000;" parent="1" vertex="1">
          <mxGeometry x="1677.0100000000002" y="3330" width="355" height="40" as="geometry" />
        </mxCell>
        <mxCell id="NMpNhmsZsLYK3NYZCR3p-95" value="" style="edgeStyle=orthogonalEdgeStyle;rounded=0;orthogonalLoop=1;jettySize=auto;html=1;" parent="1" source="NMpNhmsZsLYK3NYZCR3p-96" target="NMpNhmsZsLYK3NYZCR3p-98" edge="1">
          <mxGeometry relative="1" as="geometry" />
        </mxCell>
        <mxCell id="NMpNhmsZsLYK3NYZCR3p-96" value="sffResponse.setParameterList(parameterList)" style="rounded=1;whiteSpace=wrap;html=1;absoluteArcSize=1;arcSize=14;strokeWidth=1;fillColor=#dae8fc;strokeColor=#6c8ebf;" parent="1" vertex="1">
          <mxGeometry x="1709.5100000000002" y="3460" width="290" height="40" as="geometry" />
        </mxCell>
        <mxCell id="NMpNhmsZsLYK3NYZCR3p-286" style="edgeStyle=orthogonalEdgeStyle;rounded=0;orthogonalLoop=1;jettySize=auto;html=1;entryX=0.5;entryY=0;entryDx=0;entryDy=0;" parent="1" source="NMpNhmsZsLYK3NYZCR3p-98" target="NMpNhmsZsLYK3NYZCR3p-103" edge="1">
          <mxGeometry relative="1" as="geometry">
            <Array as="points">
              <mxPoint x="1854" y="3690" />
              <mxPoint x="935" y="3690" />
            </Array>
          </mxGeometry>
        </mxCell>
        <mxCell id="NMpNhmsZsLYK3NYZCR3p-98" value="return sffResponse" style="rounded=1;whiteSpace=wrap;html=1;absoluteArcSize=1;arcSize=14;strokeWidth=1;fillColor=#dae8fc;strokeColor=#6c8ebf;" parent="1" vertex="1">
          <mxGeometry x="1779.4900000000002" y="3580" width="150.01" height="40" as="geometry" />
        </mxCell>
        <mxCell id="NMpNhmsZsLYK3NYZCR3p-285" style="edgeStyle=orthogonalEdgeStyle;rounded=0;orthogonalLoop=1;jettySize=auto;html=1;entryX=0.5;entryY=0;entryDx=0;entryDy=0;" parent="1" source="NMpNhmsZsLYK3NYZCR3p-100" target="NMpNhmsZsLYK3NYZCR3p-103" edge="1">
          <mxGeometry relative="1" as="geometry">
            <Array as="points">
              <mxPoint x="1485" y="3690" />
              <mxPoint x="935" y="3690" />
            </Array>
          </mxGeometry>
        </mxCell>
        <mxCell id="NMpNhmsZsLYK3NYZCR3p-100" value="caseInternalPortFlg = true" style="rounded=1;whiteSpace=wrap;html=1;absoluteArcSize=1;arcSize=14;strokeWidth=1;fillColor=#dae8fc;strokeColor=#6c8ebf;" parent="1" vertex="1">
          <mxGeometry x="1400" y="3080" width="170" height="32.5" as="geometry" />
        </mxCell>
        <mxCell id="NMpNhmsZsLYK3NYZCR3p-101" style="edgeStyle=orthogonalEdgeStyle;rounded=0;orthogonalLoop=1;jettySize=auto;html=1;entryX=0;entryY=0.5;entryDx=0;entryDy=0;fillColor=#d5e8d4;strokeColor=#82b366;" parent="1" source="NMpNhmsZsLYK3NYZCR3p-103" target="NMpNhmsZsLYK3NYZCR3p-107" edge="1">
          <mxGeometry relative="1" as="geometry" />
        </mxCell>
        <mxCell id="NMpNhmsZsLYK3NYZCR3p-102" style="edgeStyle=orthogonalEdgeStyle;rounded=0;orthogonalLoop=1;jettySize=auto;html=1;entryX=0.5;entryY=0;entryDx=0;entryDy=0;fillColor=#f8cecc;strokeColor=#b85450;" parent="1" source="NMpNhmsZsLYK3NYZCR3p-103" target="NMpNhmsZsLYK3NYZCR3p-148" edge="1">
          <mxGeometry relative="1" as="geometry" />
        </mxCell>
        <mxCell id="NMpNhmsZsLYK3NYZCR3p-103" value="caseInternalPortFlg" style="rhombus;whiteSpace=wrap;html=1;fillColor=#d5e8d4;strokeColor=#82b366;" parent="1" vertex="1">
          <mxGeometry x="852.79" y="3810" width="164.45" height="130" as="geometry" />
        </mxCell>
        <mxCell id="NMpNhmsZsLYK3NYZCR3p-104" value="False" style="text;html=1;align=center;verticalAlign=middle;resizable=0;points=[];autosize=1;strokeColor=none;fillColor=none;fontColor=#FF0000;" parent="1" vertex="1">
          <mxGeometry x="1210" y="2990" width="40" height="20" as="geometry" />
        </mxCell>
        <mxCell id="NMpNhmsZsLYK3NYZCR3p-105" value="False" style="text;html=1;align=center;verticalAlign=middle;resizable=0;points=[];autosize=1;strokeColor=none;fillColor=none;fontColor=#FF0000;" parent="1" vertex="1">
          <mxGeometry x="940" y="2730" width="40" height="20" as="geometry" />
        </mxCell>
        <mxCell id="NMpNhmsZsLYK3NYZCR3p-106" value="" style="edgeStyle=orthogonalEdgeStyle;rounded=0;orthogonalLoop=1;jettySize=auto;html=1;" parent="1" source="NMpNhmsZsLYK3NYZCR3p-107" target="NMpNhmsZsLYK3NYZCR3p-111" edge="1">
          <mxGeometry relative="1" as="geometry" />
        </mxCell>
        <mxCell id="NMpNhmsZsLYK3NYZCR3p-107" value="&lt;div&gt;this.updateServiceRequestAndServiceInstanceForInternalPortRequestAckWS(orderPortInId,&amp;nbsp;&lt;/div&gt;&lt;div&gt;&lt;span&gt;      &lt;/span&gt;mobileNo, cLHRejectCode, cLHId, DonorId, lastValidationDate, sffOrder)&lt;/div&gt;" style="rounded=1;whiteSpace=wrap;html=1;absoluteArcSize=1;arcSize=14;strokeWidth=1;fillColor=#dae8fc;strokeColor=#6c8ebf;" parent="1" vertex="1">
          <mxGeometry x="1663.6" y="3856" width="610" height="40" as="geometry" />
        </mxCell>
        <mxCell id="NMpNhmsZsLYK3NYZCR3p-108" value="True" style="text;html=1;align=center;verticalAlign=middle;resizable=0;points=[];autosize=1;strokeColor=none;fillColor=none;fontColor=#00CC00;" parent="1" vertex="1">
          <mxGeometry x="1017.24" y="3840" width="40" height="20" as="geometry" />
        </mxCell>
        <mxCell id="NMpNhmsZsLYK3NYZCR3p-109" style="edgeStyle=orthogonalEdgeStyle;rounded=0;orthogonalLoop=1;jettySize=auto;html=1;entryX=0;entryY=0.5;entryDx=0;entryDy=0;fillColor=#d5e8d4;strokeColor=#82b366;" parent="1" source="NMpNhmsZsLYK3NYZCR3p-111" target="NMpNhmsZsLYK3NYZCR3p-114" edge="1">
          <mxGeometry relative="1" as="geometry" />
        </mxCell>
        <mxCell id="NMpNhmsZsLYK3NYZCR3p-110" style="edgeStyle=orthogonalEdgeStyle;rounded=0;orthogonalLoop=1;jettySize=auto;html=1;entryX=1;entryY=0.5;entryDx=0;entryDy=0;fillColor=#f8cecc;strokeColor=#b85450;" parent="1" source="NMpNhmsZsLYK3NYZCR3p-111" target="NMpNhmsZsLYK3NYZCR3p-133" edge="1">
          <mxGeometry relative="1" as="geometry" />
        </mxCell>
        <mxCell id="NMpNhmsZsLYK3NYZCR3p-111" value="cLHRejectCode != &quot;&quot;" style="rhombus;whiteSpace=wrap;html=1;fillColor=#d5e8d4;strokeColor=#82b366;" parent="1" vertex="1">
          <mxGeometry x="1886.69" y="4006" width="164.45" height="130" as="geometry" />
        </mxCell>
        <mxCell id="NMpNhmsZsLYK3NYZCR3p-113" style="edgeStyle=orthogonalEdgeStyle;rounded=0;orthogonalLoop=1;jettySize=auto;html=1;entryX=0.5;entryY=0;entryDx=0;entryDy=0;" parent="1" source="NMpNhmsZsLYK3NYZCR3p-114" target="NMpNhmsZsLYK3NYZCR3p-117" edge="1">
          <mxGeometry relative="1" as="geometry" />
        </mxCell>
        <mxCell id="NMpNhmsZsLYK3NYZCR3p-114" value="set&amp;nbsp;validateObject = new ValidateObject()" style="rounded=1;whiteSpace=wrap;html=1;absoluteArcSize=1;arcSize=14;strokeWidth=1;fillColor=#dae8fc;strokeColor=#6c8ebf;" parent="1" vertex="1">
          <mxGeometry x="2256.27" y="4051" width="252.77" height="40" as="geometry" />
        </mxCell>
        <mxCell id="NMpNhmsZsLYK3NYZCR3p-115" value="True" style="text;html=1;align=center;verticalAlign=middle;resizable=0;points=[];autosize=1;strokeColor=none;fillColor=none;fontColor=#00CC00;" parent="1" vertex="1">
          <mxGeometry x="2051.14" y="4046" width="40" height="20" as="geometry" />
        </mxCell>
        <mxCell id="NMpNhmsZsLYK3NYZCR3p-116" style="edgeStyle=orthogonalEdgeStyle;rounded=0;orthogonalLoop=1;jettySize=auto;html=1;entryX=0.5;entryY=0;entryDx=0;entryDy=0;" parent="1" source="NMpNhmsZsLYK3NYZCR3p-117" target="NMpNhmsZsLYK3NYZCR3p-120" edge="1">
          <mxGeometry relative="1" as="geometry" />
        </mxCell>
        <mxCell id="NMpNhmsZsLYK3NYZCR3p-117" value="validateObject = this.doCancelSubmittedInternalPort(validateObject, cLHRejectCode, userName, sffOrder)" style="rounded=1;whiteSpace=wrap;html=1;absoluteArcSize=1;arcSize=14;strokeWidth=1;fillColor=#dae8fc;strokeColor=#6c8ebf;" parent="1" vertex="1">
          <mxGeometry x="2177.64" y="4181" width="411.37" height="50" as="geometry" />
        </mxCell>
        <mxCell id="NMpNhmsZsLYK3NYZCR3p-118" style="edgeStyle=orthogonalEdgeStyle;rounded=0;orthogonalLoop=1;jettySize=auto;html=1;fillColor=#d5e8d4;strokeColor=#82b366;entryX=0;entryY=0.5;entryDx=0;entryDy=0;" parent="1" source="NMpNhmsZsLYK3NYZCR3p-120" target="NMpNhmsZsLYK3NYZCR3p-122" edge="1">
          <mxGeometry relative="1" as="geometry">
            <mxPoint x="2561" y="4390" as="targetPoint" />
          </mxGeometry>
        </mxCell>
        <mxCell id="NMpNhmsZsLYK3NYZCR3p-119" style="edgeStyle=orthogonalEdgeStyle;rounded=0;orthogonalLoop=1;jettySize=auto;html=1;fillColor=#f8cecc;strokeColor=#b85450;entryX=0.5;entryY=0;entryDx=0;entryDy=0;" parent="1" source="NMpNhmsZsLYK3NYZCR3p-120" target="NMpNhmsZsLYK3NYZCR3p-126" edge="1">
          <mxGeometry relative="1" as="geometry">
            <mxPoint x="2382.64" y="4531" as="targetPoint" />
          </mxGeometry>
        </mxCell>
        <mxCell id="NMpNhmsZsLYK3NYZCR3p-120" value="validateObject.isValid()" style="rhombus;whiteSpace=wrap;html=1;fillColor=#d5e8d4;strokeColor=#82b366;" parent="1" vertex="1">
          <mxGeometry x="2301.1099999999997" y="4321" width="164.45" height="130" as="geometry" />
        </mxCell>
        <mxCell id="NMpNhmsZsLYK3NYZCR3p-121" style="edgeStyle=orthogonalEdgeStyle;rounded=0;orthogonalLoop=1;jettySize=auto;html=1;entryX=0.5;entryY=0;entryDx=0;entryDy=0;" parent="1" source="NMpNhmsZsLYK3NYZCR3p-122" target="NMpNhmsZsLYK3NYZCR3p-276" edge="1">
          <mxGeometry relative="1" as="geometry">
            <Array as="points">
              <mxPoint x="2896" y="5010" />
              <mxPoint x="4000" y="5010" />
              <mxPoint x="4000" y="9730" />
              <mxPoint x="1674" y="9730" />
            </Array>
          </mxGeometry>
        </mxCell>
        <mxCell id="NMpNhmsZsLYK3NYZCR3p-122" value="parameterList = this.getReturnParameterListForPortInRequestAckWS(&quot;Success&quot;, null)" style="rounded=1;whiteSpace=wrap;html=1;absoluteArcSize=1;arcSize=14;strokeWidth=1;fillColor=#dae8fc;strokeColor=#6c8ebf;" parent="1" vertex="1">
          <mxGeometry x="2650" y="4366" width="491.68" height="40" as="geometry" />
        </mxCell>
        <mxCell id="NMpNhmsZsLYK3NYZCR3p-123" value="True" style="text;html=1;align=center;verticalAlign=middle;resizable=0;points=[];autosize=1;strokeColor=none;fillColor=none;fontColor=#00CC00;" parent="1" vertex="1">
          <mxGeometry x="2458.64" y="4361" width="40" height="20" as="geometry" />
        </mxCell>
        <mxCell id="NMpNhmsZsLYK3NYZCR3p-124" value="False" style="text;html=1;align=center;verticalAlign=middle;resizable=0;points=[];autosize=1;strokeColor=none;fillColor=none;fontColor=#FF0000;" parent="1" vertex="1">
          <mxGeometry x="2388.64" y="4461" width="40" height="20" as="geometry" />
        </mxCell>
        <mxCell id="NMpNhmsZsLYK3NYZCR3p-125" value="" style="edgeStyle=orthogonalEdgeStyle;rounded=0;orthogonalLoop=1;jettySize=auto;html=1;" parent="1" source="NMpNhmsZsLYK3NYZCR3p-126" target="NMpNhmsZsLYK3NYZCR3p-128" edge="1">
          <mxGeometry relative="1" as="geometry" />
        </mxCell>
        <mxCell id="NMpNhmsZsLYK3NYZCR3p-126" value="errorMessage = this.getOneStringErrorMessageByInvalidMessageList(validateObject)" style="rounded=1;whiteSpace=wrap;html=1;absoluteArcSize=1;arcSize=14;strokeWidth=1;fontColor=#FF0000;" parent="1" vertex="1">
          <mxGeometry x="2172.42" y="4581" width="421.82" height="40" as="geometry" />
        </mxCell>
        <mxCell id="NMpNhmsZsLYK3NYZCR3p-127" style="edgeStyle=orthogonalEdgeStyle;rounded=0;orthogonalLoop=1;jettySize=auto;html=1;entryX=0.5;entryY=0;entryDx=0;entryDy=0;" parent="1" source="NMpNhmsZsLYK3NYZCR3p-128" target="NMpNhmsZsLYK3NYZCR3p-130" edge="1">
          <mxGeometry relative="1" as="geometry" />
        </mxCell>
        <mxCell id="NMpNhmsZsLYK3NYZCR3p-128" value="sffResponse.setErrorMessage(errorMessage)" style="rounded=1;whiteSpace=wrap;html=1;absoluteArcSize=1;arcSize=14;strokeWidth=1;fontColor=#FF0000;" parent="1" vertex="1">
          <mxGeometry x="2236.02" y="4711" width="295.23" height="40" as="geometry" />
        </mxCell>
        <mxCell id="NMpNhmsZsLYK3NYZCR3p-129" style="edgeStyle=orthogonalEdgeStyle;rounded=0;orthogonalLoop=1;jettySize=auto;html=1;entryX=0.5;entryY=0;entryDx=0;entryDy=0;" parent="1" source="NMpNhmsZsLYK3NYZCR3p-130" target="NMpNhmsZsLYK3NYZCR3p-276" edge="1">
          <mxGeometry relative="1" as="geometry">
            <Array as="points">
              <mxPoint x="2383" y="5010" />
              <mxPoint x="4000" y="5010" />
              <mxPoint x="4000" y="9730" />
              <mxPoint x="1674" y="9730" />
            </Array>
          </mxGeometry>
        </mxCell>
        <mxCell id="NMpNhmsZsLYK3NYZCR3p-130" value="parameterList = this.getReturnParameterListForPortInRequestAckWS(&quot;Error&quot;, errorMessage)" style="rounded=1;whiteSpace=wrap;html=1;absoluteArcSize=1;arcSize=14;strokeWidth=1;fillColor=#dae8fc;strokeColor=#6c8ebf;" parent="1" vertex="1">
          <mxGeometry x="2178.33" y="4831" width="410" height="40" as="geometry" />
        </mxCell>
        <mxCell id="NMpNhmsZsLYK3NYZCR3p-131" style="edgeStyle=orthogonalEdgeStyle;rounded=0;orthogonalLoop=1;jettySize=auto;html=1;entryX=0.5;entryY=0;entryDx=0;entryDy=0;fillColor=#d5e8d4;strokeColor=#82b366;" parent="1" source="NMpNhmsZsLYK3NYZCR3p-133" target="NMpNhmsZsLYK3NYZCR3p-136" edge="1">
          <mxGeometry relative="1" as="geometry" />
        </mxCell>
        <mxCell id="NMpNhmsZsLYK3NYZCR3p-132" style="edgeStyle=orthogonalEdgeStyle;rounded=0;orthogonalLoop=1;jettySize=auto;html=1;entryX=0;entryY=0.5;entryDx=0;entryDy=0;fillColor=#f8cecc;strokeColor=#b85450;" parent="1" source="NMpNhmsZsLYK3NYZCR3p-133" target="NMpNhmsZsLYK3NYZCR3p-144" edge="1">
          <mxGeometry relative="1" as="geometry">
            <Array as="points">
              <mxPoint x="1367.9" y="4072" />
              <mxPoint x="1367.9" y="4856" />
            </Array>
          </mxGeometry>
        </mxCell>
        <mxCell id="NMpNhmsZsLYK3NYZCR3p-133" value="&quot;1303-2G Special Treatment&quot; != sffOrder.getSffOrderServiceInstanceList().&lt;br&gt;get(0).getStatusReason()&amp;nbsp;" style="rhombus;whiteSpace=wrap;html=1;fillColor=#d5e8d4;strokeColor=#82b366;" parent="1" vertex="1">
          <mxGeometry x="1471.4" y="3982" width="240" height="180" as="geometry" />
        </mxCell>
        <mxCell id="NMpNhmsZsLYK3NYZCR3p-134" value="False" style="text;html=1;align=center;verticalAlign=middle;resizable=0;points=[];autosize=1;strokeColor=none;fillColor=none;fontColor=#FF0000;" parent="1" vertex="1">
          <mxGeometry x="1846.6899999999996" y="4046" width="40" height="20" as="geometry" />
        </mxCell>
        <mxCell id="NMpNhmsZsLYK3NYZCR3p-135" value="" style="edgeStyle=orthogonalEdgeStyle;rounded=0;orthogonalLoop=1;jettySize=auto;html=1;" parent="1" source="NMpNhmsZsLYK3NYZCR3p-136" target="NMpNhmsZsLYK3NYZCR3p-139" edge="1">
          <mxGeometry relative="1" as="geometry" />
        </mxCell>
        <mxCell id="NMpNhmsZsLYK3NYZCR3p-136" value="&lt;div&gt;&amp;nbsp;smsTrans = this.getSmsTransaction(sffOrder, mobileNo, null, &quot;SM1570&quot; , &quot;PortInRequestAck&quot;, null&lt;span&gt;, userName)&lt;/span&gt;&lt;/div&gt;" style="rounded=1;whiteSpace=wrap;html=1;absoluteArcSize=1;arcSize=14;strokeWidth=1;fillColor=#dae8fc;strokeColor=#6c8ebf;" parent="1" vertex="1">
          <mxGeometry x="1405.04" y="4302" width="372.73" height="60" as="geometry" />
        </mxCell>
        <mxCell id="NMpNhmsZsLYK3NYZCR3p-137" value="True" style="text;html=1;align=center;verticalAlign=middle;resizable=0;points=[];autosize=1;strokeColor=none;fillColor=none;fontColor=#00CC00;" parent="1" vertex="1">
          <mxGeometry x="1603.9" y="4162" width="40" height="20" as="geometry" />
        </mxCell>
        <mxCell id="NMpNhmsZsLYK3NYZCR3p-138" style="edgeStyle=orthogonalEdgeStyle;rounded=0;orthogonalLoop=1;jettySize=auto;html=1;entryX=0.5;entryY=0;entryDx=0;entryDy=0;fillColor=#d5e8d4;strokeColor=#82b366;" parent="1" source="NMpNhmsZsLYK3NYZCR3p-139" target="NMpNhmsZsLYK3NYZCR3p-141" edge="1">
          <mxGeometry relative="1" as="geometry" />
        </mxCell>
        <mxCell id="NMpNhmsZsLYK3NYZCR3p-139" value="smsTrans != null" style="rhombus;whiteSpace=wrap;html=1;fillColor=#d5e8d4;strokeColor=#82b366;" parent="1" vertex="1">
          <mxGeometry x="1509.1799999999998" y="4461" width="164.45" height="130" as="geometry" />
        </mxCell>
        <mxCell id="NMpNhmsZsLYK3NYZCR3p-140" style="edgeStyle=orthogonalEdgeStyle;rounded=0;orthogonalLoop=1;jettySize=auto;html=1;entryX=0.5;entryY=0;entryDx=0;entryDy=0;" parent="1" source="NMpNhmsZsLYK3NYZCR3p-141" target="NMpNhmsZsLYK3NYZCR3p-144" edge="1">
          <mxGeometry relative="1" as="geometry" />
        </mxCell>
        <mxCell id="NMpNhmsZsLYK3NYZCR3p-141" value="this.sendSMSGateway(smsTrans)" style="rounded=1;whiteSpace=wrap;html=1;absoluteArcSize=1;arcSize=14;strokeWidth=1;fillColor=#dae8fc;strokeColor=#6c8ebf;" parent="1" vertex="1">
          <mxGeometry x="1477.65" y="4696" width="227.5" height="40" as="geometry" />
        </mxCell>
        <mxCell id="NMpNhmsZsLYK3NYZCR3p-142" value="True" style="text;html=1;align=center;verticalAlign=middle;resizable=0;points=[];autosize=1;strokeColor=none;fillColor=none;fontColor=#00CC00;" parent="1" vertex="1">
          <mxGeometry x="1593.8999999999996" y="4591" width="40" height="20" as="geometry" />
        </mxCell>
        <mxCell id="NMpNhmsZsLYK3NYZCR3p-143" style="edgeStyle=orthogonalEdgeStyle;rounded=0;orthogonalLoop=1;jettySize=auto;html=1;entryX=0.5;entryY=0;entryDx=0;entryDy=0;" parent="1" source="NMpNhmsZsLYK3NYZCR3p-144" target="NMpNhmsZsLYK3NYZCR3p-276" edge="1">
          <mxGeometry relative="1" as="geometry">
            <Array as="points">
              <mxPoint x="1591" y="5010" />
              <mxPoint x="4000" y="5010" />
              <mxPoint x="4000" y="9730" />
              <mxPoint x="1674" y="9730" />
            </Array>
          </mxGeometry>
        </mxCell>
        <mxCell id="NMpNhmsZsLYK3NYZCR3p-144" value="parameterList = this.getReturnParameterListForPortInRequestAckWS(&quot;Success&quot;, null)" style="rounded=1;whiteSpace=wrap;html=1;absoluteArcSize=1;arcSize=14;strokeWidth=1;fillColor=#dae8fc;strokeColor=#6c8ebf;" parent="1" vertex="1">
          <mxGeometry x="1388.28" y="4836" width="406.25" height="40" as="geometry" />
        </mxCell>
        <mxCell id="NMpNhmsZsLYK3NYZCR3p-145" value="False" style="text;html=1;align=center;verticalAlign=middle;resizable=0;points=[];autosize=1;strokeColor=none;fillColor=none;fontColor=#FF0000;" parent="1" vertex="1">
          <mxGeometry x="1431.3999999999996" y="4046" width="40" height="20" as="geometry" />
        </mxCell>
        <mxCell id="NMpNhmsZsLYK3NYZCR3p-146" style="edgeStyle=orthogonalEdgeStyle;rounded=0;orthogonalLoop=1;jettySize=auto;html=1;entryX=0;entryY=0.5;entryDx=0;entryDy=0;fillColor=#d5e8d4;strokeColor=#82b366;" parent="1" source="NMpNhmsZsLYK3NYZCR3p-148" target="NMpNhmsZsLYK3NYZCR3p-151" edge="1">
          <mxGeometry relative="1" as="geometry" />
        </mxCell>
        <mxCell id="NMpNhmsZsLYK3NYZCR3p-147" style="edgeStyle=orthogonalEdgeStyle;rounded=0;orthogonalLoop=1;jettySize=auto;html=1;fillColor=#f8cecc;strokeColor=#b85450;" parent="1" source="NMpNhmsZsLYK3NYZCR3p-148" target="NMpNhmsZsLYK3NYZCR3p-264" edge="1">
          <mxGeometry relative="1" as="geometry" />
        </mxCell>
        <mxCell id="NMpNhmsZsLYK3NYZCR3p-148" value="!errFlg &amp;amp;&amp;amp;&amp;nbsp;&amp;nbsp;caseCancel != &quot;Y&quot;" style="rhombus;whiteSpace=wrap;html=1;fillColor=#f8cecc;strokeColor=#b85450;" parent="1" vertex="1">
          <mxGeometry x="840.47" y="5115" width="187.53" height="130" as="geometry" />
        </mxCell>
        <mxCell id="NMpNhmsZsLYK3NYZCR3p-149" value="False" style="text;html=1;align=center;verticalAlign=middle;resizable=0;points=[];autosize=1;strokeColor=none;fillColor=none;fontColor=#FF0000;" parent="1" vertex="1">
          <mxGeometry x="953.4999999999998" y="3950" width="40" height="20" as="geometry" />
        </mxCell>
        <mxCell id="NMpNhmsZsLYK3NYZCR3p-150" style="edgeStyle=orthogonalEdgeStyle;rounded=0;orthogonalLoop=1;jettySize=auto;html=1;" parent="1" source="NMpNhmsZsLYK3NYZCR3p-151" edge="1">
          <mxGeometry relative="1" as="geometry">
            <mxPoint x="1968" y="5180" as="targetPoint" />
          </mxGeometry>
        </mxCell>
        <mxCell id="NMpNhmsZsLYK3NYZCR3p-151" value="&lt;div&gt;validateObject = this.portInRequestAck(&lt;/div&gt;&lt;div&gt;&lt;span&gt;              &lt;/span&gt;orderPortInId, mobileNo,&amp;nbsp;&lt;/div&gt;&lt;div&gt;&lt;span&gt;              &lt;/span&gt;cLHId, DonorId,&lt;/div&gt;&lt;div&gt;&lt;span&gt;              &lt;/span&gt;cLHRejectCode, lastValidationDate)&lt;/div&gt;" style="rounded=1;whiteSpace=wrap;html=1;absoluteArcSize=1;arcSize=14;strokeWidth=1;fillColor=#dae8fc;strokeColor=#6c8ebf;" parent="1" vertex="1">
          <mxGeometry x="1368" y="5140" width="261.98" height="80" as="geometry" />
        </mxCell>
        <mxCell id="NMpNhmsZsLYK3NYZCR3p-152" style="edgeStyle=orthogonalEdgeStyle;rounded=0;orthogonalLoop=1;jettySize=auto;html=1;entryX=0.5;entryY=0;entryDx=0;entryDy=0;" parent="1" source="NMpNhmsZsLYK3NYZCR3p-153" target="NMpNhmsZsLYK3NYZCR3p-156" edge="1">
          <mxGeometry relative="1" as="geometry" />
        </mxCell>
        <mxCell id="NMpNhmsZsLYK3NYZCR3p-153" value="cancelNumberPort = false" style="rounded=1;whiteSpace=wrap;html=1;absoluteArcSize=1;arcSize=14;strokeWidth=1;fillColor=#dae8fc;strokeColor=#6c8ebf;" parent="1" vertex="1">
          <mxGeometry x="1969.0000000000002" y="5160" width="227.5" height="40" as="geometry" />
        </mxCell>
        <mxCell id="NMpNhmsZsLYK3NYZCR3p-154" style="edgeStyle=orthogonalEdgeStyle;rounded=0;orthogonalLoop=1;jettySize=auto;html=1;entryX=0;entryY=0.5;entryDx=0;entryDy=0;fillColor=#d5e8d4;strokeColor=#82b366;" parent="1" source="NMpNhmsZsLYK3NYZCR3p-156" target="NMpNhmsZsLYK3NYZCR3p-158" edge="1">
          <mxGeometry relative="1" as="geometry" />
        </mxCell>
        <mxCell id="NMpNhmsZsLYK3NYZCR3p-155" style="edgeStyle=orthogonalEdgeStyle;rounded=0;orthogonalLoop=1;jettySize=auto;html=1;entryX=0.5;entryY=0;entryDx=0;entryDy=0;fillColor=#f8cecc;strokeColor=#b85450;" parent="1" source="NMpNhmsZsLYK3NYZCR3p-156" target="NMpNhmsZsLYK3NYZCR3p-162" edge="1">
          <mxGeometry relative="1" as="geometry" />
        </mxCell>
        <mxCell id="NMpNhmsZsLYK3NYZCR3p-156" value="validateObject.isValid()" style="rhombus;whiteSpace=wrap;html=1;fillColor=#d5e8d4;strokeColor=#82b366;" parent="1" vertex="1">
          <mxGeometry x="1988.93" y="5420" width="187.53" height="130" as="geometry" />
        </mxCell>
        <mxCell id="NMpNhmsZsLYK3NYZCR3p-157" style="edgeStyle=orthogonalEdgeStyle;rounded=0;orthogonalLoop=1;jettySize=auto;html=1;entryX=0.5;entryY=0;entryDx=0;entryDy=0;" parent="1" source="NMpNhmsZsLYK3NYZCR3p-158" target="NMpNhmsZsLYK3NYZCR3p-162" edge="1">
          <mxGeometry relative="1" as="geometry">
            <Array as="points">
              <mxPoint x="2422" y="5610" />
              <mxPoint x="2083" y="5610" />
            </Array>
          </mxGeometry>
        </mxCell>
        <mxCell id="NMpNhmsZsLYK3NYZCR3p-158" value="cancelNumberPort = true" style="rounded=1;whiteSpace=wrap;html=1;absoluteArcSize=1;arcSize=14;strokeWidth=1;fillColor=#dae8fc;strokeColor=#6c8ebf;" parent="1" vertex="1">
          <mxGeometry x="2308" y="5465" width="227.5" height="40" as="geometry" />
        </mxCell>
        <mxCell id="NMpNhmsZsLYK3NYZCR3p-159" value="True" style="text;html=1;align=center;verticalAlign=middle;resizable=0;points=[];autosize=1;strokeColor=none;fillColor=none;fontColor=#00CC00;" parent="1" vertex="1">
          <mxGeometry x="2175.4999999999995" y="5460" width="40" height="20" as="geometry" />
        </mxCell>
        <mxCell id="NMpNhmsZsLYK3NYZCR3p-160" style="edgeStyle=orthogonalEdgeStyle;rounded=0;orthogonalLoop=1;jettySize=auto;html=1;entryX=0;entryY=0.5;entryDx=0;entryDy=0;fillColor=#d5e8d4;strokeColor=#82b366;" parent="1" source="NMpNhmsZsLYK3NYZCR3p-162" target="NMpNhmsZsLYK3NYZCR3p-164" edge="1">
          <mxGeometry relative="1" as="geometry" />
        </mxCell>
        <mxCell id="NMpNhmsZsLYK3NYZCR3p-161" style="edgeStyle=orthogonalEdgeStyle;rounded=0;orthogonalLoop=1;jettySize=auto;html=1;entryX=0.5;entryY=0;entryDx=0;entryDy=0;fillColor=#f8cecc;strokeColor=#b85450;" parent="1" source="NMpNhmsZsLYK3NYZCR3p-162" target="NMpNhmsZsLYK3NYZCR3p-171" edge="1">
          <mxGeometry relative="1" as="geometry" />
        </mxCell>
        <mxCell id="NMpNhmsZsLYK3NYZCR3p-162" value="sffOrder == null" style="rhombus;whiteSpace=wrap;html=1;fillColor=#d5e8d4;strokeColor=#82b366;" parent="1" vertex="1">
          <mxGeometry x="2016.18" y="5665" width="133.03" height="110" as="geometry" />
        </mxCell>
        <mxCell id="NMpNhmsZsLYK3NYZCR3p-163" style="edgeStyle=orthogonalEdgeStyle;rounded=0;orthogonalLoop=1;jettySize=auto;html=1;entryX=0.5;entryY=0;entryDx=0;entryDy=0;" parent="1" source="NMpNhmsZsLYK3NYZCR3p-164" target="NMpNhmsZsLYK3NYZCR3p-169" edge="1">
          <mxGeometry relative="1" as="geometry" />
        </mxCell>
        <mxCell id="NMpNhmsZsLYK3NYZCR3p-164" value="parameterList = this.getReturnParameterListForPortInRequestAckWS(&quot;Error&quot;, orderPortInId+&quot; is not found&quot;)" style="rounded=1;whiteSpace=wrap;html=1;absoluteArcSize=1;arcSize=14;strokeWidth=1;fillColor=#dae8fc;strokeColor=#6c8ebf;" parent="1" vertex="1">
          <mxGeometry x="2308" y="5695" width="460" height="50" as="geometry" />
        </mxCell>
        <mxCell id="NMpNhmsZsLYK3NYZCR3p-165" value="True" style="text;html=1;align=center;verticalAlign=middle;resizable=0;points=[];autosize=1;strokeColor=none;fillColor=none;fontColor=#00CC00;" parent="1" vertex="1">
          <mxGeometry x="2151.0299999999997" y="5690" width="40" height="20" as="geometry" />
        </mxCell>
        <mxCell id="NMpNhmsZsLYK3NYZCR3p-167" value="True" style="text;html=1;align=center;verticalAlign=middle;resizable=0;points=[];autosize=1;strokeColor=none;fillColor=none;fontColor=#00CC00;" parent="1" vertex="1">
          <mxGeometry x="1025.2399999999996" y="5150" width="40" height="20" as="geometry" />
        </mxCell>
        <mxCell id="NMpNhmsZsLYK3NYZCR3p-168" style="edgeStyle=orthogonalEdgeStyle;rounded=0;orthogonalLoop=1;jettySize=auto;html=1;entryX=0.5;entryY=0;entryDx=0;entryDy=0;" parent="1" source="NMpNhmsZsLYK3NYZCR3p-169" target="NMpNhmsZsLYK3NYZCR3p-276" edge="1">
          <mxGeometry relative="1" as="geometry">
            <Array as="points">
              <mxPoint x="2538" y="6010" />
              <mxPoint x="4000" y="6010" />
              <mxPoint x="4000" y="9730" />
              <mxPoint x="1674" y="9730" />
            </Array>
          </mxGeometry>
        </mxCell>
        <mxCell id="NMpNhmsZsLYK3NYZCR3p-169" value="sffResponse.setErrorMessage(orderPortInId+&quot; is not found&quot;)" style="rounded=1;whiteSpace=wrap;html=1;absoluteArcSize=1;arcSize=14;strokeWidth=1;fontColor=#FF0000;" parent="1" vertex="1">
          <mxGeometry x="2369.19" y="5830" width="337.61" height="40" as="geometry" />
        </mxCell>
        <mxCell id="NMpNhmsZsLYK3NYZCR3p-170" style="edgeStyle=orthogonalEdgeStyle;rounded=0;orthogonalLoop=1;jettySize=auto;html=1;entryX=0.5;entryY=0;entryDx=0;entryDy=0;" parent="1" source="NMpNhmsZsLYK3NYZCR3p-171" target="NMpNhmsZsLYK3NYZCR3p-174" edge="1">
          <mxGeometry relative="1" as="geometry" />
        </mxCell>
        <mxCell id="NMpNhmsZsLYK3NYZCR3p-171" value="set listLovDonor new ArrayList&amp;lt;SffCfgLov&amp;gt;()&amp;nbsp;" style="rounded=1;whiteSpace=wrap;html=1;absoluteArcSize=1;arcSize=14;strokeWidth=1;fillColor=#dae8fc;strokeColor=#6c8ebf;" parent="1" vertex="1">
          <mxGeometry x="1946.0199999999998" y="5860" width="274" height="40" as="geometry" />
        </mxCell>
        <mxCell id="NMpNhmsZsLYK3NYZCR3p-172" value="False" style="text;html=1;align=center;verticalAlign=middle;resizable=0;points=[];autosize=1;strokeColor=none;fillColor=none;fontColor=#FF0000;" parent="1" vertex="1">
          <mxGeometry x="2088" y="5775" width="40" height="20" as="geometry" />
        </mxCell>
        <mxCell id="NMpNhmsZsLYK3NYZCR3p-173" style="edgeStyle=orthogonalEdgeStyle;rounded=0;orthogonalLoop=1;jettySize=auto;html=1;entryX=0.5;entryY=0;entryDx=0;entryDy=0;" parent="1" source="NMpNhmsZsLYK3NYZCR3p-174" target="NMpNhmsZsLYK3NYZCR3p-176" edge="1">
          <mxGeometry relative="1" as="geometry" />
        </mxCell>
        <mxCell id="NMpNhmsZsLYK3NYZCR3p-174" value="set model lovDonor&amp;nbsp; new SffCfgLov()" style="rounded=1;whiteSpace=wrap;html=1;absoluteArcSize=1;arcSize=14;strokeWidth=1;fillColor=#dae8fc;strokeColor=#6c8ebf;" parent="1" vertex="1">
          <mxGeometry x="1975.0400000000002" y="5980" width="215.31" height="40" as="geometry" />
        </mxCell>
        <mxCell id="NMpNhmsZsLYK3NYZCR3p-175" style="edgeStyle=orthogonalEdgeStyle;rounded=0;orthogonalLoop=1;jettySize=auto;html=1;entryX=0.5;entryY=0;entryDx=0;entryDy=0;" parent="1" source="NMpNhmsZsLYK3NYZCR3p-176" target="NMpNhmsZsLYK3NYZCR3p-178" edge="1">
          <mxGeometry relative="1" as="geometry" />
        </mxCell>
        <mxCell id="NMpNhmsZsLYK3NYZCR3p-176" value="SffCfgLov.setLovType(&quot;PORT_IN_ACK_DONOR&quot;)&lt;br&gt;.setLovName(&quot;DONOR_ID&quot;)&lt;br&gt;.setDisplayVal(DonorId)" style="rounded=1;whiteSpace=wrap;html=1;absoluteArcSize=1;arcSize=14;strokeWidth=1;fillColor=#dae8fc;strokeColor=#6c8ebf;" parent="1" vertex="1">
          <mxGeometry x="1937.6899999999998" y="6100" width="290" height="60" as="geometry" />
        </mxCell>
        <mxCell id="NMpNhmsZsLYK3NYZCR3p-177" style="edgeStyle=orthogonalEdgeStyle;rounded=0;orthogonalLoop=1;jettySize=auto;html=1;entryX=0.5;entryY=0;entryDx=0;entryDy=0;" parent="1" source="NMpNhmsZsLYK3NYZCR3p-178" target="NMpNhmsZsLYK3NYZCR3p-181" edge="1">
          <mxGeometry relative="1" as="geometry" />
        </mxCell>
        <mxCell id="NMpNhmsZsLYK3NYZCR3p-178" value="listLovDonor = lovService.getListLOVActive(lovDonor)" style="rounded=1;whiteSpace=wrap;html=1;absoluteArcSize=1;arcSize=14;strokeWidth=1;fillColor=#dae8fc;strokeColor=#6c8ebf;" parent="1" vertex="1">
          <mxGeometry x="1929.41" y="6240" width="306.56" height="40" as="geometry" />
        </mxCell>
        <mxCell id="NMpNhmsZsLYK3NYZCR3p-179" style="edgeStyle=orthogonalEdgeStyle;rounded=0;orthogonalLoop=1;jettySize=auto;html=1;fillColor=#d5e8d4;strokeColor=#82b366;" parent="1" source="NMpNhmsZsLYK3NYZCR3p-181" target="NMpNhmsZsLYK3NYZCR3p-184" edge="1">
          <mxGeometry relative="1" as="geometry" />
        </mxCell>
        <mxCell id="NMpNhmsZsLYK3NYZCR3p-180" style="edgeStyle=orthogonalEdgeStyle;rounded=0;orthogonalLoop=1;jettySize=auto;html=1;entryX=0.5;entryY=0;entryDx=0;entryDy=0;fillColor=#f8cecc;strokeColor=#b85450;" parent="1" source="NMpNhmsZsLYK3NYZCR3p-181" target="NMpNhmsZsLYK3NYZCR3p-207" edge="1">
          <mxGeometry relative="1" as="geometry" />
        </mxCell>
        <mxCell id="NMpNhmsZsLYK3NYZCR3p-181" value="(cLHRejectCode.isNotEmpty &amp;amp;&amp;amp; cancelNumberPort) || listLovDonor != null &amp;amp;&amp;amp; listLovDonor.size() &amp;lt; 0" style="rhombus;whiteSpace=wrap;html=1;fillColor=#f8cecc;strokeColor=#b85450;" parent="1" vertex="1">
          <mxGeometry x="1911.5799999999997" y="6370" width="341.82" height="160" as="geometry" />
        </mxCell>
        <mxCell id="NMpNhmsZsLYK3NYZCR3p-182" style="edgeStyle=orthogonalEdgeStyle;rounded=0;orthogonalLoop=1;jettySize=auto;html=1;entryX=0;entryY=0.5;entryDx=0;entryDy=0;fillColor=#d5e8d4;strokeColor=#82b366;" parent="1" source="NMpNhmsZsLYK3NYZCR3p-184" target="NMpNhmsZsLYK3NYZCR3p-187" edge="1">
          <mxGeometry relative="1" as="geometry" />
        </mxCell>
        <mxCell id="NMpNhmsZsLYK3NYZCR3p-183" style="edgeStyle=orthogonalEdgeStyle;rounded=0;orthogonalLoop=1;jettySize=auto;html=1;entryX=0;entryY=0.5;entryDx=0;entryDy=0;fillColor=#f8cecc;strokeColor=#b85450;" parent="1" source="NMpNhmsZsLYK3NYZCR3p-184" target="NMpNhmsZsLYK3NYZCR3p-202" edge="1">
          <mxGeometry relative="1" as="geometry">
            <Array as="points">
              <mxPoint x="2612" y="7350" />
            </Array>
          </mxGeometry>
        </mxCell>
        <mxCell id="NMpNhmsZsLYK3NYZCR3p-184" value="listLovDonor != null &amp;amp;&amp;amp; listLovDonor.size() &amp;lt; 0" style="rhombus;whiteSpace=wrap;html=1;fillColor=#d5e8d4;strokeColor=#82b366;" parent="1" vertex="1">
          <mxGeometry x="2469.57" y="6380" width="284.65" height="140" as="geometry" />
        </mxCell>
        <mxCell id="NMpNhmsZsLYK3NYZCR3p-185" value="True" style="text;html=1;align=center;verticalAlign=middle;resizable=0;points=[];autosize=1;strokeColor=none;fillColor=none;fontColor=#00CC00;" parent="1" vertex="1">
          <mxGeometry x="2250.74" y="6420" width="40" height="20" as="geometry" />
        </mxCell>
        <mxCell id="NMpNhmsZsLYK3NYZCR3p-186" style="edgeStyle=orthogonalEdgeStyle;rounded=0;orthogonalLoop=1;jettySize=auto;html=1;entryX=0.5;entryY=0;entryDx=0;entryDy=0;" parent="1" source="NMpNhmsZsLYK3NYZCR3p-187" target="NMpNhmsZsLYK3NYZCR3p-189" edge="1">
          <mxGeometry relative="1" as="geometry" />
        </mxCell>
        <mxCell id="NMpNhmsZsLYK3NYZCR3p-187" value="set listLovErrMsgTMV new ArrayList&amp;lt;SffCfgLov&amp;gt;()&amp;nbsp;" style="rounded=1;whiteSpace=wrap;html=1;absoluteArcSize=1;arcSize=14;strokeWidth=1;fillColor=#dae8fc;strokeColor=#6c8ebf;" parent="1" vertex="1">
          <mxGeometry x="3012.59" y="6430" width="297.23" height="40" as="geometry" />
        </mxCell>
        <mxCell id="NMpNhmsZsLYK3NYZCR3p-188" style="edgeStyle=orthogonalEdgeStyle;rounded=0;orthogonalLoop=1;jettySize=auto;html=1;entryX=0.5;entryY=0;entryDx=0;entryDy=0;" parent="1" source="NMpNhmsZsLYK3NYZCR3p-189" target="NMpNhmsZsLYK3NYZCR3p-192" edge="1">
          <mxGeometry relative="1" as="geometry" />
        </mxCell>
        <mxCell id="NMpNhmsZsLYK3NYZCR3p-189" value="set model lovErrMsgTMV new SffCfgLov()" style="rounded=1;whiteSpace=wrap;html=1;absoluteArcSize=1;arcSize=14;strokeWidth=1;fillColor=#dae8fc;strokeColor=#6c8ebf;" parent="1" vertex="1">
          <mxGeometry x="3031.21" y="6560" width="260" height="40" as="geometry" />
        </mxCell>
        <mxCell id="NMpNhmsZsLYK3NYZCR3p-190" value="True" style="text;html=1;align=center;verticalAlign=middle;resizable=0;points=[];autosize=1;strokeColor=none;fillColor=none;fontColor=#00CC00;" parent="1" vertex="1">
          <mxGeometry x="2754.4999999999995" y="6420" width="40" height="20" as="geometry" />
        </mxCell>
        <mxCell id="NMpNhmsZsLYK3NYZCR3p-191" style="edgeStyle=orthogonalEdgeStyle;rounded=0;orthogonalLoop=1;jettySize=auto;html=1;entryX=0.5;entryY=0;entryDx=0;entryDy=0;" parent="1" source="NMpNhmsZsLYK3NYZCR3p-192" target="NMpNhmsZsLYK3NYZCR3p-194" edge="1">
          <mxGeometry relative="1" as="geometry" />
        </mxCell>
        <mxCell id="NMpNhmsZsLYK3NYZCR3p-192" value="&lt;div&gt;lovErrMsgTMV.setLovType(&quot;CANCEL_ORDER_REASON&quot;)&lt;/div&gt;&lt;div&gt;.setLovName(&quot;Port - In&quot;)&lt;/div&gt;&lt;div&gt;.setLovVal3(DonorId)&lt;/div&gt;" style="rounded=1;whiteSpace=wrap;html=1;absoluteArcSize=1;arcSize=14;strokeWidth=1;fillColor=#dae8fc;strokeColor=#6c8ebf;" parent="1" vertex="1">
          <mxGeometry x="2994.34" y="6680" width="333.72" height="60" as="geometry" />
        </mxCell>
        <mxCell id="NMpNhmsZsLYK3NYZCR3p-193" style="edgeStyle=orthogonalEdgeStyle;rounded=0;orthogonalLoop=1;jettySize=auto;html=1;entryX=0.5;entryY=0;entryDx=0;entryDy=0;" parent="1" source="NMpNhmsZsLYK3NYZCR3p-194" target="NMpNhmsZsLYK3NYZCR3p-197" edge="1">
          <mxGeometry relative="1" as="geometry" />
        </mxCell>
        <mxCell id="NMpNhmsZsLYK3NYZCR3p-194" value="listLovErrMsgTMV = lovService.getListLOVActive(lovErrMsgTMV)" style="rounded=1;whiteSpace=wrap;html=1;absoluteArcSize=1;arcSize=14;strokeWidth=1;fillColor=#dae8fc;strokeColor=#6c8ebf;" parent="1" vertex="1">
          <mxGeometry x="2967" y="6830" width="388.39" height="40" as="geometry" />
        </mxCell>
        <mxCell id="NMpNhmsZsLYK3NYZCR3p-195" style="edgeStyle=orthogonalEdgeStyle;rounded=0;orthogonalLoop=1;jettySize=auto;html=1;entryX=0;entryY=0.5;entryDx=0;entryDy=0;fillColor=#d5e8d4;strokeColor=#82b366;" parent="1" source="NMpNhmsZsLYK3NYZCR3p-197" target="NMpNhmsZsLYK3NYZCR3p-199" edge="1">
          <mxGeometry relative="1" as="geometry" />
        </mxCell>
        <mxCell id="NMpNhmsZsLYK3NYZCR3p-196" style="edgeStyle=orthogonalEdgeStyle;rounded=0;orthogonalLoop=1;jettySize=auto;html=1;entryX=0.5;entryY=0;entryDx=0;entryDy=0;fillColor=#f8cecc;strokeColor=#b85450;" parent="1" source="NMpNhmsZsLYK3NYZCR3p-197" target="NMpNhmsZsLYK3NYZCR3p-202" edge="1">
          <mxGeometry relative="1" as="geometry" />
        </mxCell>
        <mxCell id="NMpNhmsZsLYK3NYZCR3p-197" value="listLovErrMsgTMV != null &amp;amp;&amp;amp; listLovErrMsgTMV.size() &amp;lt; 0" style="rhombus;whiteSpace=wrap;html=1;fillColor=#d5e8d4;strokeColor=#82b366;" parent="1" vertex="1">
          <mxGeometry x="3047.48" y="6970" width="227.44" height="120" as="geometry" />
        </mxCell>
        <mxCell id="NMpNhmsZsLYK3NYZCR3p-198" style="edgeStyle=orthogonalEdgeStyle;rounded=0;orthogonalLoop=1;jettySize=auto;html=1;entryX=1;entryY=0.5;entryDx=0;entryDy=0;" parent="1" source="NMpNhmsZsLYK3NYZCR3p-199" target="NMpNhmsZsLYK3NYZCR3p-202" edge="1">
          <mxGeometry relative="1" as="geometry">
            <Array as="points">
              <mxPoint x="3590" y="7350" />
            </Array>
          </mxGeometry>
        </mxCell>
        <mxCell id="NMpNhmsZsLYK3NYZCR3p-199" value="sffOrder.setCancelReason(listLovErrMsgTMV.get(0).getDisplayVal())" style="rounded=1;whiteSpace=wrap;html=1;absoluteArcSize=1;arcSize=14;strokeWidth=1;fillColor=#dae8fc;strokeColor=#6c8ebf;" parent="1" vertex="1">
          <mxGeometry x="3384.16" y="7010" width="388.39" height="40" as="geometry" />
        </mxCell>
        <mxCell id="NMpNhmsZsLYK3NYZCR3p-200" value="True" style="text;html=1;align=center;verticalAlign=middle;resizable=0;points=[];autosize=1;strokeColor=none;fillColor=none;fontColor=#00CC00;" parent="1" vertex="1">
          <mxGeometry x="3263.5299999999997" y="7000" width="40" height="20" as="geometry" />
        </mxCell>
        <mxCell id="NMpNhmsZsLYK3NYZCR3p-201" style="edgeStyle=orthogonalEdgeStyle;rounded=0;orthogonalLoop=1;jettySize=auto;html=1;entryX=0.5;entryY=0;entryDx=0;entryDy=0;" parent="1" source="NMpNhmsZsLYK3NYZCR3p-202" target="NMpNhmsZsLYK3NYZCR3p-249" edge="1">
          <mxGeometry relative="1" as="geometry">
            <Array as="points">
              <mxPoint x="3161" y="8910" />
              <mxPoint x="1674" y="8910" />
            </Array>
          </mxGeometry>
        </mxCell>
        <mxCell id="NMpNhmsZsLYK3NYZCR3p-202" value="&lt;span&gt; &lt;/span&gt;validateObject = this.doCancelSubmittedNumberPort(validateObject, cLHRejectCode, userName, sffOrder)" style="rounded=1;whiteSpace=wrap;html=1;absoluteArcSize=1;arcSize=14;strokeWidth=1;fillColor=#dae8fc;strokeColor=#6c8ebf;" parent="1" vertex="1">
          <mxGeometry x="2971.6100000000006" y="7330" width="379.2" height="40" as="geometry" />
        </mxCell>
        <mxCell id="NMpNhmsZsLYK3NYZCR3p-203" value="False" style="text;html=1;align=center;verticalAlign=middle;resizable=0;points=[];autosize=1;strokeColor=none;fillColor=none;fontColor=#FF0000;" parent="1" vertex="1">
          <mxGeometry x="3170" y="7100" width="40" height="20" as="geometry" />
        </mxCell>
        <mxCell id="NMpNhmsZsLYK3NYZCR3p-204" value="False" style="text;html=1;align=center;verticalAlign=middle;resizable=0;points=[];autosize=1;strokeColor=none;fillColor=none;fontColor=#FF0000;" parent="1" vertex="1">
          <mxGeometry x="2631.37" y="6530" width="40" height="20" as="geometry" />
        </mxCell>
        <mxCell id="NMpNhmsZsLYK3NYZCR3p-205" style="edgeStyle=orthogonalEdgeStyle;rounded=0;orthogonalLoop=1;jettySize=auto;html=1;fillColor=#d5e8d4;strokeColor=#82b366;" parent="1" source="NMpNhmsZsLYK3NYZCR3p-207" target="NMpNhmsZsLYK3NYZCR3p-210" edge="1">
          <mxGeometry relative="1" as="geometry" />
        </mxCell>
        <mxCell id="NMpNhmsZsLYK3NYZCR3p-206" style="edgeStyle=orthogonalEdgeStyle;rounded=0;orthogonalLoop=1;jettySize=auto;html=1;entryX=0.5;entryY=0;entryDx=0;entryDy=0;fillColor=#f8cecc;strokeColor=#b85450;" parent="1" source="NMpNhmsZsLYK3NYZCR3p-207" target="NMpNhmsZsLYK3NYZCR3p-249" edge="1">
          <mxGeometry relative="1" as="geometry" />
        </mxCell>
        <mxCell id="NMpNhmsZsLYK3NYZCR3p-207" value="cLHRejectCode.isEmpty()" style="rhombus;whiteSpace=wrap;html=1;fillColor=#f8cecc;strokeColor=#b85450;" parent="1" vertex="1">
          <mxGeometry x="1978.2499999999998" y="6700" width="206.4" height="120" as="geometry" />
        </mxCell>
        <mxCell id="NMpNhmsZsLYK3NYZCR3p-208" value="False" style="text;html=1;align=center;verticalAlign=middle;resizable=0;points=[];autosize=1;strokeColor=none;fillColor=none;fontColor=#FF0000;" parent="1" vertex="1">
          <mxGeometry x="2099.5" y="6550" width="40" height="20" as="geometry" />
        </mxCell>
        <mxCell id="NMpNhmsZsLYK3NYZCR3p-209" style="edgeStyle=orthogonalEdgeStyle;rounded=0;orthogonalLoop=1;jettySize=auto;html=1;entryX=0.5;entryY=0;entryDx=0;entryDy=0;" parent="1" source="NMpNhmsZsLYK3NYZCR3p-210" target="NMpNhmsZsLYK3NYZCR3p-214" edge="1">
          <mxGeometry relative="1" as="geometry" />
        </mxCell>
        <mxCell id="NMpNhmsZsLYK3NYZCR3p-210" value="msgCode = &quot;SM1470&quot;" style="rounded=1;whiteSpace=wrap;html=1;absoluteArcSize=1;arcSize=14;strokeWidth=1;fillColor=#dae8fc;strokeColor=#6c8ebf;" parent="1" vertex="1">
          <mxGeometry x="1996.9999999999998" y="6920" width="168.59" height="40" as="geometry" />
        </mxCell>
        <mxCell id="NMpNhmsZsLYK3NYZCR3p-211" value="True" style="text;html=1;align=center;verticalAlign=middle;resizable=0;points=[];autosize=1;strokeColor=none;fillColor=none;fontColor=#00CC00;" parent="1" vertex="1">
          <mxGeometry x="2086.9999999999995" y="6820" width="40" height="20" as="geometry" />
        </mxCell>
        <mxCell id="NMpNhmsZsLYK3NYZCR3p-212" value="Approve" style="text;html=1;strokeColor=none;fillColor=none;align=center;verticalAlign=middle;whiteSpace=wrap;rounded=0;fontColor=#000000;fontSize=17;fontStyle=1" parent="1" vertex="1">
          <mxGeometry x="2071.1200000000003" y="6870" width="143.38" height="30" as="geometry" />
        </mxCell>
        <mxCell id="NMpNhmsZsLYK3NYZCR3p-213" style="edgeStyle=orthogonalEdgeStyle;rounded=0;orthogonalLoop=1;jettySize=auto;html=1;entryX=0.5;entryY=0;entryDx=0;entryDy=0;fillColor=#d5e8d4;strokeColor=#82b366;" parent="1" source="NMpNhmsZsLYK3NYZCR3p-214" target="NMpNhmsZsLYK3NYZCR3p-217" edge="1">
          <mxGeometry relative="1" as="geometry" />
        </mxCell>
        <mxCell id="rCmYVlH3uaA40maVWgBb-1" style="edgeStyle=orthogonalEdgeStyle;rounded=0;orthogonalLoop=1;jettySize=auto;html=1;entryX=0;entryY=0.5;entryDx=0;entryDy=0;fillColor=#f8cecc;strokeColor=#b85450;" edge="1" parent="1" source="NMpNhmsZsLYK3NYZCR3p-214" target="NMpNhmsZsLYK3NYZCR3p-235">
          <mxGeometry relative="1" as="geometry">
            <Array as="points">
              <mxPoint x="1772" y="7160" />
              <mxPoint x="1772" y="8540" />
            </Array>
          </mxGeometry>
        </mxCell>
        <mxCell id="NMpNhmsZsLYK3NYZCR3p-214" value="sffOrder.getSffOrderServiceInstanceList() != null &amp;amp;&amp;amp; sffOrder.getSffOrderServiceInstanceList().size() &amp;gt; 0" style="rhombus;whiteSpace=wrap;html=1;fillColor=#d5e8d4;strokeColor=#82b366;" parent="1" vertex="1">
          <mxGeometry x="1912.2499999999998" y="7080" width="338.03" height="160" as="geometry" />
        </mxCell>
        <mxCell id="NMpNhmsZsLYK3NYZCR3p-215" value="Check Promotion Main is Brand NU Mobile" style="text;html=1;strokeColor=none;fillColor=none;align=center;verticalAlign=middle;whiteSpace=wrap;rounded=0;fontColor=#000000;fontSize=17;fontStyle=1" parent="1" vertex="1">
          <mxGeometry x="2077" y="7040" width="396.9" height="30" as="geometry" />
        </mxCell>
        <mxCell id="NMpNhmsZsLYK3NYZCR3p-216" style="edgeStyle=orthogonalEdgeStyle;rounded=0;orthogonalLoop=1;jettySize=auto;html=1;entryX=0.5;entryY=0;entryDx=0;entryDy=0;" parent="1" source="NMpNhmsZsLYK3NYZCR3p-217" target="NMpNhmsZsLYK3NYZCR3p-220" edge="1">
          <mxGeometry relative="1" as="geometry" />
        </mxCell>
        <mxCell id="NMpNhmsZsLYK3NYZCR3p-217" value="set orderServiceInstance sffOrder.getSffOrderServiceInstanceList()" style="rounded=1;whiteSpace=wrap;html=1;absoluteArcSize=1;arcSize=14;strokeWidth=1;fillColor=#dae8fc;strokeColor=#6c8ebf;" parent="1" vertex="1">
          <mxGeometry x="1876.86" y="7340" width="408.81" height="40" as="geometry" />
        </mxCell>
        <mxCell id="NMpNhmsZsLYK3NYZCR3p-218" style="edgeStyle=orthogonalEdgeStyle;rounded=0;orthogonalLoop=1;jettySize=auto;html=1;entryX=0.5;entryY=0;entryDx=0;entryDy=0;fillColor=#d5e8d4;strokeColor=#82b366;" parent="1" source="NMpNhmsZsLYK3NYZCR3p-220" target="NMpNhmsZsLYK3NYZCR3p-223" edge="1">
          <mxGeometry relative="1" as="geometry" />
        </mxCell>
        <mxCell id="NMpNhmsZsLYK3NYZCR3p-219" style="edgeStyle=orthogonalEdgeStyle;rounded=0;orthogonalLoop=1;jettySize=auto;html=1;entryX=0;entryY=0.5;entryDx=0;entryDy=0;" parent="1" source="NMpNhmsZsLYK3NYZCR3p-220" target="NMpNhmsZsLYK3NYZCR3p-237" edge="1">
          <mxGeometry relative="1" as="geometry">
            <Array as="points">
              <mxPoint x="1856.9999999999998" y="7560" />
              <mxPoint x="1856.9999999999998" y="8385" />
            </Array>
          </mxGeometry>
        </mxCell>
        <mxCell id="NMpNhmsZsLYK3NYZCR3p-220" value="sffOrderServiceInstance : orderServiceInstance" style="rhombus;whiteSpace=wrap;html=1;fillColor=#fff2cc;strokeColor=#d6b656;" parent="1" vertex="1">
          <mxGeometry x="1943.89" y="7490" width="274.75" height="140" as="geometry" />
        </mxCell>
        <mxCell id="NMpNhmsZsLYK3NYZCR3p-221" style="edgeStyle=orthogonalEdgeStyle;rounded=0;orthogonalLoop=1;jettySize=auto;html=1;fillColor=#d5e8d4;strokeColor=#82b366;" parent="1" source="NMpNhmsZsLYK3NYZCR3p-223" target="NMpNhmsZsLYK3NYZCR3p-225" edge="1">
          <mxGeometry relative="1" as="geometry" />
        </mxCell>
        <mxCell id="NMpNhmsZsLYK3NYZCR3p-222" style="edgeStyle=orthogonalEdgeStyle;rounded=0;orthogonalLoop=1;jettySize=auto;html=1;entryX=0.5;entryY=0;entryDx=0;entryDy=0;fillColor=#f8cecc;strokeColor=#b85450;" parent="1" source="NMpNhmsZsLYK3NYZCR3p-223" target="NMpNhmsZsLYK3NYZCR3p-237" edge="1">
          <mxGeometry relative="1" as="geometry" />
        </mxCell>
        <mxCell id="NMpNhmsZsLYK3NYZCR3p-223" value="&lt;div&gt;sffOrderServiceInstance.&lt;/div&gt;&lt;div&gt;getSffOrderPromotionItemList() != null&lt;/div&gt;&lt;div&gt;&lt;span&gt;            &lt;/span&gt;&amp;amp;&amp;amp; sffOrderServiceInstance.&lt;/div&gt;&lt;div&gt;getSffOrderPromotionItemList().size() &amp;gt; 0&lt;/div&gt;" style="rhombus;whiteSpace=wrap;html=1;fillColor=#d5e8d4;strokeColor=#82b366;" parent="1" vertex="1">
          <mxGeometry x="1938.32" y="7750" width="286.76" height="200" as="geometry" />
        </mxCell>
        <mxCell id="NMpNhmsZsLYK3NYZCR3p-224" style="edgeStyle=orthogonalEdgeStyle;rounded=0;orthogonalLoop=1;jettySize=auto;html=1;entryX=0.5;entryY=0;entryDx=0;entryDy=0;" parent="1" source="NMpNhmsZsLYK3NYZCR3p-225" target="NMpNhmsZsLYK3NYZCR3p-230" edge="1">
          <mxGeometry relative="1" as="geometry" />
        </mxCell>
        <mxCell id="NMpNhmsZsLYK3NYZCR3p-225" value="jointBrand = queryOrderService.getJointBrand(sffOrderServiceInstance.getSffOrderPromotionItemList())" style="rounded=1;whiteSpace=wrap;html=1;absoluteArcSize=1;arcSize=14;strokeWidth=1;fillColor=#dae8fc;strokeColor=#6c8ebf;" parent="1" vertex="1">
          <mxGeometry x="2377" y="7830" width="580" height="40" as="geometry" />
        </mxCell>
        <mxCell id="NMpNhmsZsLYK3NYZCR3p-226" value="True" style="text;html=1;align=center;verticalAlign=middle;resizable=0;points=[];autosize=1;strokeColor=none;fillColor=none;fontColor=#00CC00;" parent="1" vertex="1">
          <mxGeometry x="2086.9999999999995" y="7250" width="40" height="20" as="geometry" />
        </mxCell>
        <mxCell id="NMpNhmsZsLYK3NYZCR3p-227" value="True" style="text;html=1;align=center;verticalAlign=middle;resizable=0;points=[];autosize=1;strokeColor=none;fillColor=none;fontColor=#00CC00;" parent="1" vertex="1">
          <mxGeometry x="2225.0799999999995" y="7820" width="40" height="20" as="geometry" />
        </mxCell>
        <mxCell id="NMpNhmsZsLYK3NYZCR3p-228" style="edgeStyle=orthogonalEdgeStyle;rounded=0;orthogonalLoop=1;jettySize=auto;html=1;" parent="1" source="NMpNhmsZsLYK3NYZCR3p-230" target="NMpNhmsZsLYK3NYZCR3p-232" edge="1">
          <mxGeometry relative="1" as="geometry" />
        </mxCell>
        <mxCell id="NMpNhmsZsLYK3NYZCR3p-229" style="edgeStyle=orthogonalEdgeStyle;rounded=0;orthogonalLoop=1;jettySize=auto;html=1;entryX=1;entryY=0.5;entryDx=0;entryDy=0;fillColor=#f8cecc;strokeColor=#b85450;" parent="1" source="NMpNhmsZsLYK3NYZCR3p-230" target="NMpNhmsZsLYK3NYZCR3p-237" edge="1">
          <mxGeometry relative="1" as="geometry" />
        </mxCell>
        <mxCell id="NMpNhmsZsLYK3NYZCR3p-230" value="jointBrand.isNotEmpty()" style="rhombus;whiteSpace=wrap;html=1;fillColor=#d5e8d4;strokeColor=#82b366;" parent="1" vertex="1">
          <mxGeometry x="2583.6200000000003" y="7970" width="166.76" height="130" as="geometry" />
        </mxCell>
        <mxCell id="NMpNhmsZsLYK3NYZCR3p-231" style="edgeStyle=orthogonalEdgeStyle;rounded=0;orthogonalLoop=1;jettySize=auto;html=1;entryX=1;entryY=0.5;entryDx=0;entryDy=0;" parent="1" source="NMpNhmsZsLYK3NYZCR3p-232" target="NMpNhmsZsLYK3NYZCR3p-237" edge="1">
          <mxGeometry relative="1" as="geometry">
            <Array as="points">
              <mxPoint x="2667" y="8385" />
            </Array>
          </mxGeometry>
        </mxCell>
        <mxCell id="NMpNhmsZsLYK3NYZCR3p-232" value="msgCode = getSMSByBrand(&quot;MNP_1002_APPROVE&quot;, jointBrand, msgCode)" style="rounded=1;whiteSpace=wrap;html=1;absoluteArcSize=1;arcSize=14;strokeWidth=1;fillColor=#dae8fc;strokeColor=#6c8ebf;" parent="1" vertex="1">
          <mxGeometry x="2442.0000000000005" y="8200" width="450.3" height="40" as="geometry" />
        </mxCell>
        <mxCell id="NMpNhmsZsLYK3NYZCR3p-233" value="True" style="text;html=1;align=center;verticalAlign=middle;resizable=0;points=[];autosize=1;strokeColor=none;fillColor=none;fontColor=#00CC00;" parent="1" vertex="1">
          <mxGeometry x="2671.3699999999994" y="8100" width="40" height="20" as="geometry" />
        </mxCell>
        <mxCell id="NMpNhmsZsLYK3NYZCR3p-234" style="edgeStyle=orthogonalEdgeStyle;rounded=0;orthogonalLoop=1;jettySize=auto;html=1;entryX=0.5;entryY=0;entryDx=0;entryDy=0;" parent="1" source="NMpNhmsZsLYK3NYZCR3p-235" target="NMpNhmsZsLYK3NYZCR3p-243" edge="1">
          <mxGeometry relative="1" as="geometry" />
        </mxCell>
        <mxCell id="NMpNhmsZsLYK3NYZCR3p-235" value="smsTrans = getSmsTransaction(sffOrder, mobileNo, null , msgCode, &quot;PortInRequestAck&quot;, null, userName)" style="rounded=1;whiteSpace=wrap;html=1;absoluteArcSize=1;arcSize=14;strokeWidth=1;fillColor=#dae8fc;strokeColor=#6c8ebf;" parent="1" vertex="1">
          <mxGeometry x="1792.54" y="8520" width="580" height="40" as="geometry" />
        </mxCell>
        <mxCell id="NMpNhmsZsLYK3NYZCR3p-236" style="edgeStyle=orthogonalEdgeStyle;rounded=0;orthogonalLoop=1;jettySize=auto;html=1;entryX=0.5;entryY=0;entryDx=0;entryDy=0;" parent="1" source="NMpNhmsZsLYK3NYZCR3p-237" target="NMpNhmsZsLYK3NYZCR3p-235" edge="1">
          <mxGeometry relative="1" as="geometry" />
        </mxCell>
        <mxCell id="NMpNhmsZsLYK3NYZCR3p-237" value="" style="ellipse;whiteSpace=wrap;html=1;fillColor=#fff2cc;strokeColor=#d6b656;" parent="1" vertex="1">
          <mxGeometry x="2067" y="8370" width="30" height="30" as="geometry" />
        </mxCell>
        <mxCell id="NMpNhmsZsLYK3NYZCR3p-238" value="True" style="text;html=1;align=center;verticalAlign=middle;resizable=0;points=[];autosize=1;strokeColor=none;fillColor=none;fontColor=#00CC00;" parent="1" vertex="1">
          <mxGeometry x="2086.9999999999995" y="7640" width="40" height="20" as="geometry" />
        </mxCell>
        <mxCell id="NMpNhmsZsLYK3NYZCR3p-239" value="False" style="text;html=1;align=center;verticalAlign=middle;resizable=0;points=[];autosize=1;strokeColor=none;fillColor=none;fontColor=#FF0000;" parent="1" vertex="1">
          <mxGeometry x="2547" y="8050" width="40" height="20" as="geometry" />
        </mxCell>
        <mxCell id="NMpNhmsZsLYK3NYZCR3p-240" value="False" style="text;html=1;align=center;verticalAlign=middle;resizable=0;points=[];autosize=1;strokeColor=none;fillColor=none;fontColor=#FF0000;" parent="1" vertex="1">
          <mxGeometry x="2087" y="7960" width="40" height="20" as="geometry" />
        </mxCell>
        <mxCell id="NMpNhmsZsLYK3NYZCR3p-241" style="edgeStyle=orthogonalEdgeStyle;rounded=0;orthogonalLoop=1;jettySize=auto;html=1;entryX=0;entryY=0.5;entryDx=0;entryDy=0;fillColor=#d5e8d4;strokeColor=#82b366;" parent="1" source="NMpNhmsZsLYK3NYZCR3p-243" target="NMpNhmsZsLYK3NYZCR3p-245" edge="1">
          <mxGeometry relative="1" as="geometry" />
        </mxCell>
        <mxCell id="NMpNhmsZsLYK3NYZCR3p-242" style="edgeStyle=orthogonalEdgeStyle;rounded=0;orthogonalLoop=1;jettySize=auto;html=1;entryX=0.5;entryY=0;entryDx=0;entryDy=0;fillColor=#f8cecc;strokeColor=#b85450;" parent="1" source="NMpNhmsZsLYK3NYZCR3p-243" target="NMpNhmsZsLYK3NYZCR3p-249" edge="1">
          <mxGeometry relative="1" as="geometry" />
        </mxCell>
        <mxCell id="NMpNhmsZsLYK3NYZCR3p-243" value="smsTrans != null" style="rhombus;whiteSpace=wrap;html=1;fillColor=#d5e8d4;strokeColor=#82b366;" parent="1" vertex="1">
          <mxGeometry x="1998.2800000000002" y="8680" width="166.76" height="130" as="geometry" />
        </mxCell>
        <mxCell id="NMpNhmsZsLYK3NYZCR3p-244" style="edgeStyle=orthogonalEdgeStyle;rounded=0;orthogonalLoop=1;jettySize=auto;html=1;entryX=0.5;entryY=0;entryDx=0;entryDy=0;" parent="1" source="NMpNhmsZsLYK3NYZCR3p-245" target="NMpNhmsZsLYK3NYZCR3p-249" edge="1">
          <mxGeometry relative="1" as="geometry">
            <Array as="points">
              <mxPoint x="2469" y="8910" />
              <mxPoint x="1674" y="8910" />
            </Array>
          </mxGeometry>
        </mxCell>
        <mxCell id="NMpNhmsZsLYK3NYZCR3p-245" value="this.sendSMSGateway(smsTrans)" style="rounded=1;whiteSpace=wrap;html=1;absoluteArcSize=1;arcSize=14;strokeWidth=1;fillColor=#dae8fc;strokeColor=#6c8ebf;" parent="1" vertex="1">
          <mxGeometry x="2353.9" y="8726.25" width="230" height="37.5" as="geometry" />
        </mxCell>
        <mxCell id="NMpNhmsZsLYK3NYZCR3p-246" value="True" style="text;html=1;align=center;verticalAlign=middle;resizable=0;points=[];autosize=1;strokeColor=none;fillColor=none;fontColor=#00CC00;" parent="1" vertex="1">
          <mxGeometry x="2164.5199999999995" y="8720" width="40" height="20" as="geometry" />
        </mxCell>
        <mxCell id="NMpNhmsZsLYK3NYZCR3p-247" style="edgeStyle=orthogonalEdgeStyle;rounded=0;orthogonalLoop=1;jettySize=auto;html=1;entryX=0;entryY=0.5;entryDx=0;entryDy=0;fillColor=#d5e8d4;strokeColor=#82b366;" parent="1" source="NMpNhmsZsLYK3NYZCR3p-249" target="NMpNhmsZsLYK3NYZCR3p-251" edge="1">
          <mxGeometry relative="1" as="geometry" />
        </mxCell>
        <mxCell id="NMpNhmsZsLYK3NYZCR3p-248" style="edgeStyle=orthogonalEdgeStyle;rounded=0;orthogonalLoop=1;jettySize=auto;html=1;entryX=0.5;entryY=0;entryDx=0;entryDy=0;fillColor=#f8cecc;strokeColor=#b85450;" parent="1" source="NMpNhmsZsLYK3NYZCR3p-249" target="NMpNhmsZsLYK3NYZCR3p-256" edge="1">
          <mxGeometry relative="1" as="geometry" />
        </mxCell>
        <mxCell id="NMpNhmsZsLYK3NYZCR3p-249" value="validateObject.isValid()" style="rhombus;whiteSpace=wrap;html=1;fillColor=#d5e8d4;strokeColor=#82b366;" parent="1" vertex="1">
          <mxGeometry x="1590.52" y="9040" width="166.76" height="130" as="geometry" />
        </mxCell>
        <mxCell id="NMpNhmsZsLYK3NYZCR3p-250" style="edgeStyle=orthogonalEdgeStyle;rounded=0;orthogonalLoop=1;jettySize=auto;html=1;entryX=0.5;entryY=0;entryDx=0;entryDy=0;" parent="1" source="NMpNhmsZsLYK3NYZCR3p-251" target="NMpNhmsZsLYK3NYZCR3p-276" edge="1">
          <mxGeometry relative="1" as="geometry">
            <Array as="points">
              <mxPoint x="2140" y="9730" />
              <mxPoint x="1674" y="9730" />
            </Array>
          </mxGeometry>
        </mxCell>
        <mxCell id="NMpNhmsZsLYK3NYZCR3p-251" value="parameterList = this.getReturnParameterListForPortInRequestAckWS(&quot;Success&quot;, null)" style="rounded=1;whiteSpace=wrap;html=1;absoluteArcSize=1;arcSize=14;strokeWidth=1;fillColor=#dae8fc;strokeColor=#6c8ebf;" parent="1" vertex="1">
          <mxGeometry x="1892.29" y="9085" width="496.13" height="40" as="geometry" />
        </mxCell>
        <mxCell id="NMpNhmsZsLYK3NYZCR3p-252" value="True" style="text;html=1;align=center;verticalAlign=middle;resizable=0;points=[];autosize=1;strokeColor=none;fillColor=none;fontColor=#00CC00;" parent="1" vertex="1">
          <mxGeometry x="1757.2799999999993" y="9085" width="40" height="20" as="geometry" />
        </mxCell>
        <mxCell id="NMpNhmsZsLYK3NYZCR3p-253" style="edgeStyle=orthogonalEdgeStyle;rounded=0;orthogonalLoop=1;jettySize=auto;html=1;entryX=0.5;entryY=0;entryDx=0;entryDy=0;" parent="1" source="NMpNhmsZsLYK3NYZCR3p-254" target="NMpNhmsZsLYK3NYZCR3p-276" edge="1">
          <mxGeometry relative="1" as="geometry" />
        </mxCell>
        <mxCell id="NMpNhmsZsLYK3NYZCR3p-254" value="parameterList = this.getReturnParameterListForPortInRequestAckWS(&quot;Error&quot;, errorMessage)" style="rounded=1;whiteSpace=wrap;html=1;absoluteArcSize=1;arcSize=14;strokeWidth=1;fillColor=#dae8fc;strokeColor=#6c8ebf;" parent="1" vertex="1">
          <mxGeometry x="1386.2799999999997" y="9510" width="574.72" height="40" as="geometry" />
        </mxCell>
        <mxCell id="NMpNhmsZsLYK3NYZCR3p-255" style="edgeStyle=orthogonalEdgeStyle;rounded=0;orthogonalLoop=1;jettySize=auto;html=1;entryX=0.5;entryY=0;entryDx=0;entryDy=0;" parent="1" source="NMpNhmsZsLYK3NYZCR3p-256" target="NMpNhmsZsLYK3NYZCR3p-258" edge="1">
          <mxGeometry relative="1" as="geometry" />
        </mxCell>
        <mxCell id="NMpNhmsZsLYK3NYZCR3p-256" value="errorMessage = this.getOneStringErrorMessageByInvalidMessageList(validateObject)" style="rounded=1;whiteSpace=wrap;html=1;absoluteArcSize=1;arcSize=14;strokeWidth=1;fontColor=#FF0000;" parent="1" vertex="1">
          <mxGeometry x="1430.1" y="9275" width="487.61" height="40" as="geometry" />
        </mxCell>
        <mxCell id="NMpNhmsZsLYK3NYZCR3p-257" style="edgeStyle=orthogonalEdgeStyle;rounded=0;orthogonalLoop=1;jettySize=auto;html=1;entryX=0.5;entryY=0;entryDx=0;entryDy=0;" parent="1" source="NMpNhmsZsLYK3NYZCR3p-258" target="NMpNhmsZsLYK3NYZCR3p-254" edge="1">
          <mxGeometry relative="1" as="geometry" />
        </mxCell>
        <mxCell id="NMpNhmsZsLYK3NYZCR3p-258" value="sffResponse.setErrorMessage(errorMessage)" style="rounded=1;whiteSpace=wrap;html=1;absoluteArcSize=1;arcSize=14;strokeWidth=1;fontColor=#FF0000;" parent="1" vertex="1">
          <mxGeometry x="1515.31" y="9385" width="317.18" height="40" as="geometry" />
        </mxCell>
        <mxCell id="NMpNhmsZsLYK3NYZCR3p-259" value="False" style="text;html=1;align=center;verticalAlign=middle;resizable=0;points=[];autosize=1;strokeColor=none;fillColor=none;fontColor=#FF0000;" parent="1" vertex="1">
          <mxGeometry x="1684.7799999999997" y="9170" width="40" height="20" as="geometry" />
        </mxCell>
        <mxCell id="NMpNhmsZsLYK3NYZCR3p-261" value="False" style="text;html=1;align=center;verticalAlign=middle;resizable=0;points=[];autosize=1;strokeColor=none;fillColor=none;fontColor=#FF0000;" parent="1" vertex="1">
          <mxGeometry x="1957.2799999999997" y="8720" width="40" height="20" as="geometry" />
        </mxCell>
        <mxCell id="NMpNhmsZsLYK3NYZCR3p-262" style="edgeStyle=orthogonalEdgeStyle;rounded=0;orthogonalLoop=1;jettySize=auto;html=1;entryX=0;entryY=0.5;entryDx=0;entryDy=0;fillColor=#d5e8d4;strokeColor=#82b366;" parent="1" source="NMpNhmsZsLYK3NYZCR3p-264" target="NMpNhmsZsLYK3NYZCR3p-267" edge="1">
          <mxGeometry relative="1" as="geometry" />
        </mxCell>
        <mxCell id="NMpNhmsZsLYK3NYZCR3p-263" style="edgeStyle=orthogonalEdgeStyle;rounded=0;orthogonalLoop=1;jettySize=auto;html=1;entryX=0.5;entryY=0;entryDx=0;entryDy=0;fillColor=#f8cecc;strokeColor=#b85450;" parent="1" source="NMpNhmsZsLYK3NYZCR3p-264" target="NMpNhmsZsLYK3NYZCR3p-272" edge="1">
          <mxGeometry relative="1" as="geometry">
            <mxPoint x="934.2350000000006" y="5620" as="targetPoint" />
          </mxGeometry>
        </mxCell>
        <mxCell id="NMpNhmsZsLYK3NYZCR3p-264" value="!errFlg &amp;amp;&amp;amp;&amp;nbsp;&amp;nbsp;caseCancel = &quot;Y&quot;" style="rhombus;whiteSpace=wrap;html=1;fillColor=#f8cecc;strokeColor=#b85450;" parent="1" vertex="1">
          <mxGeometry x="840.47" y="5370" width="187.53" height="130" as="geometry" />
        </mxCell>
        <mxCell id="NMpNhmsZsLYK3NYZCR3p-265" value="False" style="text;html=1;align=center;verticalAlign=middle;resizable=0;points=[];autosize=1;strokeColor=none;fillColor=none;fontColor=#FF0000;" parent="1" vertex="1">
          <mxGeometry x="941.82" y="5245" width="40" height="20" as="geometry" />
        </mxCell>
        <mxCell id="NMpNhmsZsLYK3NYZCR3p-266" style="edgeStyle=orthogonalEdgeStyle;rounded=0;orthogonalLoop=1;jettySize=auto;html=1;entryX=0.5;entryY=0;entryDx=0;entryDy=0;" parent="1" edge="1">
          <mxGeometry relative="1" as="geometry">
            <Array as="points">
              <mxPoint x="1612" y="6270" />
              <mxPoint x="932" y="6270" />
              <mxPoint x="932" y="9730" />
              <mxPoint x="1676" y="9730" />
            </Array>
            <mxPoint x="1611.428571428572" y="5462.5" as="sourcePoint" />
            <mxPoint x="1676.04" y="9790" as="targetPoint" />
          </mxGeometry>
        </mxCell>
        <mxCell id="NMpNhmsZsLYK3NYZCR3p-267" value="parameterList = this.getReturnParameterListForPortInRequestAckWS(&quot;Success&quot;, null)" style="rounded=1;whiteSpace=wrap;html=1;absoluteArcSize=1;arcSize=14;strokeWidth=1;fillColor=#dae8fc;strokeColor=#6c8ebf;" parent="1" vertex="1">
          <mxGeometry x="1368" y="5407.5" width="482.94" height="55" as="geometry" />
        </mxCell>
        <mxCell id="NMpNhmsZsLYK3NYZCR3p-268" value="True" style="text;html=1;align=center;verticalAlign=middle;resizable=0;points=[];autosize=1;strokeColor=none;fillColor=none;fontColor=#00CC00;" parent="1" vertex="1">
          <mxGeometry x="1027.8799999999997" y="5400" width="40" height="20" as="geometry" />
        </mxCell>
        <mxCell id="NMpNhmsZsLYK3NYZCR3p-270" value="False" style="text;html=1;align=center;verticalAlign=middle;resizable=0;points=[];autosize=1;strokeColor=none;fillColor=none;fontColor=#FF0000;" parent="1" vertex="1">
          <mxGeometry x="941.82" y="5505" width="40" height="20" as="geometry" />
        </mxCell>
        <mxCell id="NMpNhmsZsLYK3NYZCR3p-271" style="edgeStyle=orthogonalEdgeStyle;rounded=0;orthogonalLoop=1;jettySize=auto;html=1;entryX=0.5;entryY=0;entryDx=0;entryDy=0;" parent="1" source="NMpNhmsZsLYK3NYZCR3p-272" target="NMpNhmsZsLYK3NYZCR3p-274" edge="1">
          <mxGeometry relative="1" as="geometry" />
        </mxCell>
        <mxCell id="NMpNhmsZsLYK3NYZCR3p-272" value="parameterList = this.getReturnParameterListForPortInRequestAckWS(&quot;Error&quot;, errorMessageForParam)" style="rounded=1;whiteSpace=wrap;html=1;absoluteArcSize=1;arcSize=14;strokeWidth=1;fillColor=#dae8fc;strokeColor=#6c8ebf;" parent="1" vertex="1">
          <mxGeometry x="641.77" y="5630" width="585.23" height="55" as="geometry" />
        </mxCell>
        <mxCell id="NMpNhmsZsLYK3NYZCR3p-273" style="edgeStyle=orthogonalEdgeStyle;rounded=0;orthogonalLoop=1;jettySize=auto;html=1;entryX=0.5;entryY=0;entryDx=0;entryDy=0;" parent="1" source="NMpNhmsZsLYK3NYZCR3p-274" target="NMpNhmsZsLYK3NYZCR3p-276" edge="1">
          <mxGeometry relative="1" as="geometry">
            <Array as="points">
              <mxPoint x="934" y="9730" />
              <mxPoint x="1674" y="9730" />
            </Array>
          </mxGeometry>
        </mxCell>
        <mxCell id="NMpNhmsZsLYK3NYZCR3p-274" value="sffResponse.setErrorMessage(errorMessageForParam)" style="rounded=1;whiteSpace=wrap;html=1;absoluteArcSize=1;arcSize=14;strokeWidth=1;fontColor=#FF0000;" parent="1" vertex="1">
          <mxGeometry x="768" y="5795" width="331.23" height="40" as="geometry" />
        </mxCell>
        <mxCell id="NMpNhmsZsLYK3NYZCR3p-275" style="edgeStyle=orthogonalEdgeStyle;rounded=0;orthogonalLoop=1;jettySize=auto;html=1;entryX=0.5;entryY=0;entryDx=0;entryDy=0;" parent="1" source="NMpNhmsZsLYK3NYZCR3p-276" target="NMpNhmsZsLYK3NYZCR3p-281" edge="1">
          <mxGeometry relative="1" as="geometry">
            <mxPoint x="1674" y="9900" as="targetPoint" />
          </mxGeometry>
        </mxCell>
        <mxCell id="NMpNhmsZsLYK3NYZCR3p-276" value="sffResponse.setParameterList(parameterList);" style="rounded=1;whiteSpace=wrap;html=1;absoluteArcSize=1;arcSize=14;strokeWidth=1;fillColor=#dae8fc;strokeColor=#6c8ebf;" parent="1" vertex="1">
          <mxGeometry x="1511.18" y="9790" width="325.72" height="40" as="geometry" />
        </mxCell>
        <mxCell id="NMpNhmsZsLYK3NYZCR3p-277" value="False" style="text;html=1;align=center;verticalAlign=middle;resizable=0;points=[];autosize=1;strokeColor=none;fillColor=none;fontColor=#FF0000;" parent="1" vertex="1">
          <mxGeometry x="1921" y="6730" width="40" height="20" as="geometry" />
        </mxCell>
        <mxCell id="NMpNhmsZsLYK3NYZCR3p-279" value="False" style="text;html=1;align=center;verticalAlign=middle;resizable=0;points=[];autosize=1;strokeColor=none;fillColor=none;fontColor=#FF0000;" parent="1" vertex="1">
          <mxGeometry x="2091.14" y="5550" width="40" height="20" as="geometry" />
        </mxCell>
        <mxCell id="NMpNhmsZsLYK3NYZCR3p-280" style="edgeStyle=orthogonalEdgeStyle;rounded=0;orthogonalLoop=1;jettySize=auto;html=1;entryX=0.5;entryY=0;entryDx=0;entryDy=0;entryPerimeter=0;" parent="1" source="NMpNhmsZsLYK3NYZCR3p-281" target="NMpNhmsZsLYK3NYZCR3p-282" edge="1">
          <mxGeometry relative="1" as="geometry" />
        </mxCell>
        <mxCell id="NMpNhmsZsLYK3NYZCR3p-281" value="logger.info(evPortInRequestAck : mobileNo. + Datetime)" style="rounded=1;whiteSpace=wrap;html=1;absoluteArcSize=1;arcSize=14;strokeWidth=1;fillColor=#fff2cc;gradientColor=#ffd966;strokeColor=#d6b656;" parent="1" vertex="1">
          <mxGeometry x="1496.06" y="9930" width="355.96" height="50" as="geometry" />
        </mxCell>
        <mxCell id="NMpNhmsZsLYK3NYZCR3p-282" value="return sffResponse" style="strokeWidth=2;html=1;shape=mxgraph.flowchart.terminator;whiteSpace=wrap;fillColor=#647687;fontColor=#ffffff;strokeColor=#314354;labelBackgroundColor=none;" parent="1" vertex="1">
          <mxGeometry x="1609.0400000000002" y="10070" width="130" height="60" as="geometry" />
        </mxCell>
        <mxCell id="rCmYVlH3uaA40maVWgBb-2" value="False" style="text;html=1;align=center;verticalAlign=middle;resizable=0;points=[];autosize=1;strokeColor=none;fillColor=none;fontColor=#FF0000;" vertex="1" parent="1">
          <mxGeometry x="1886.69" y="7120" width="40" height="20" as="geometry" />
        </mxCell>
      </root>
    </mxGraphModel>
  </diagram>
</mxfile>
